<svg width="18" height="18" viewBox="0 0 18 18" fill="none" xmlns="http://www.w3.org/2000/svg">
<g clip-path="url(#clip0)">
<path d="M17.3892 8.31478L16.1634 7.78431L15.1226 5.75889C14.8413 5.20431 14.2706 4.8587 13.6477 4.86272H11.8554V4.35637C11.8554 3.4401 11.124 2.69263 10.2077 2.69263H1.63986C0.723595 2.69263 0.000228999 3.44412 0.000228999 4.35637V12.1124C-0.0078084 12.671 0.438267 13.1292 0.996867 13.1372C1.00089 13.1372 1.0049 13.1372 1.01294 13.1372H1.22593C1.22593 13.1774 1.22191 13.1935 1.22191 13.2176C1.2179 14.3669 2.14622 15.3033 3.29556 15.3073C4.44491 15.3113 5.38127 14.383 5.38529 13.2337C5.38529 13.2256 5.38529 13.2216 5.38529 13.2136C5.38529 13.1854 5.38529 13.1734 5.38127 13.1332H12.3055C12.3055 13.1734 12.3055 13.1894 12.3055 13.2136C12.3015 14.3629 13.2298 15.2993 14.3791 15.3033C15.5285 15.3073 16.4648 14.379 16.4689 13.2296C16.4689 13.2216 16.4689 13.2176 16.4689 13.2095C16.4689 13.1814 16.4689 13.1694 16.4689 13.1292H16.9873C17.5459 13.1292 18 12.6751 18 12.1165C18 12.1124 18 12.1084 18 12.1004V9.24711C18.008 8.85328 17.7669 8.47954 17.3892 8.31478ZM3.30762 14.5076C2.60033 14.5076 2.02967 13.9369 2.02967 13.2296C2.02967 12.5223 2.60033 11.9517 3.30762 11.9517C4.01491 11.9517 4.58557 12.5223 4.58557 13.2296C4.58557 13.9329 4.01089 14.5076 3.30762 14.5076ZM11.0517 12.3415H5.19239C4.85482 11.6061 4.11538 11.1359 3.30762 11.1399C2.49584 11.1359 1.76042 11.6021 1.42285 12.3415H1.01294C0.888362 12.3415 0.803969 12.2451 0.803969 12.1205V10.0509H11.0517V12.3415ZM11.0517 4.36038V9.24711H0.803969V4.36038C0.803969 3.8902 1.16967 3.50038 1.63986 3.50038H10.2077C10.6779 3.5044 11.0557 3.8902 11.0517 4.35637V4.36038ZM11.8554 5.67048H13.6477C13.9652 5.66646 14.2626 5.83926 14.4113 6.12459L15.215 7.67982H11.8554V5.67048ZM14.3912 14.5076C13.6839 14.5076 13.1133 13.9369 13.1133 13.2296C13.1133 12.5223 13.6839 11.9517 14.3912 11.9517C15.0985 11.9517 15.6691 12.5223 15.6691 13.2296C15.6691 13.9329 15.0985 14.5076 14.3912 14.5076ZM17.2003 12.1205C17.2003 12.2451 17.1159 12.3415 16.9913 12.3415H16.276C15.7897 11.3007 14.5519 10.8506 13.5111 11.3368C13.069 11.5418 12.7114 11.8994 12.5064 12.3415H11.8554V8.48356H15.7937L17.0717 9.04618C17.152 9.08636 17.2043 9.17478 17.2003 9.26319V12.1205Z" fill="#777777"/>
</g>
<defs>
<clipPath id="clip0">
<rect width="18" height="18" fill="white"/>
</clipPath>
</defs>
</svg>
