<svg version="1.2" baseProfile="tiny-ps" xmlns="http://www.w3.org/2000/svg" viewBox="0 0 1194 1052" width="1194" height="1052">
	<title>3369472-ai</title>
	<style>
		tspan { white-space:pre }
		.s0 { fill: #ebebeb } 
		.s1 { fill: #e0e0e0 } 
		.s2 { fill: #f5f5f5 } 
		.s3 { fill: #ffffff } 
		.s4 { fill: #f0f0f0 } 
		.s5 { fill: #e6e6e6 } 
		.s6 { fill: #fafafa } 
		.s7 { fill: #0baf9a } 
		.s8 { opacity: .2;fill: #000000 } 
		.s9 { opacity: .2;fill: #ffffff } 
		.s10 { opacity: .5;fill: #ffffff } 
		.s11 { fill: #0baf9a;stroke: #407bff;stroke-width: 3 } 
		.s12 { opacity: .1;fill: #000000 } 
		.s13 { opacity: .3;fill: #0baf9a } 
		.s14 { opacity: .4;fill: #000000 } 
		.s15 { fill: #263238 } 
		.s16 { fill: #ed847e } 
		.s17 { fill: #ffc3bd } 
		.s18 { opacity: .3;fill: #000000 } 
	</style>
	<g id="Background Complete">
		<g id="&lt;Group&gt;">
			<path id="&lt;Path&gt;" class="s0" d="m1348 899.95h-1500v-0.75h1500v0.75z" />
			<path id="&lt;Path&gt;" class="s0" d="m1098.34 947.48h99.37v0.75h-99.37v-0.75z" />
			<path id="&lt;Path&gt;" class="s0" d="m815.58 955.62h26.08v0.75h-26.08v-0.75z" />
			<path id="&lt;Path&gt;" class="s0" d="m1037.76 919.62h57.58v0.75h-57.58v-0.75z" />
			<path id="&lt;Path&gt;" class="s0" d="m5.38 924.67h129.58v0.75h-129.58v-0.75z" />
			<path id="&lt;Path&gt;" class="s0" d="m161.67 924.67h19v0.75h-19v-0.75z" />
			<path id="&lt;Path&gt;" class="s0" d="m242.41 937.33h281.03v0.75h-281.03v-0.75z" />
			<path id="&lt;Compound Path&gt;" fill-rule="evenodd" class="s0" d="m559.04 765.4h-579.3c-9.44 0-17.12-7.68-17.12-17.12v-814.29c0-9.44 7.68-17.12 17.12-17.12h579.3c9.44 0 17.12 7.68 17.12 17.12v814.29c0 9.44-7.68 17.12-17.12 17.12zm-579.3-847.79c-9.03 0-16.37 7.34-16.37 16.37v814.29c0 9.03 7.34 16.37 16.37 16.37h579.3c9.03 0 16.37-7.34 16.37-16.37v-814.29c0-9.03-7.34-16.37-16.37-16.37h-579.3z" />
			<path id="&lt;Compound Path&gt;" fill-rule="evenodd" class="s0" d="m1207.93 765.4h-579.3c-9.44 0-17.12-7.68-17.12-17.12v-814.29c0-9.44 7.68-17.12 17.12-17.12h579.3c9.44 0 17.12 7.68 17.12 17.12v814.29c0 9.44-7.68 17.12-17.12 17.12zm-579.3-847.79c-9.03 0-16.37 7.34-16.37 16.37v814.29c0 9.03 7.34 16.37 16.37 16.37h579.3c9.03 0 16.37-7.34 16.37-16.37v-814.29c0-9.03-7.34-16.37-16.37-16.37h-579.3z" />
		</g>
		<g id="&lt;Group&gt;">
			<g id="&lt;Group&gt;">
				<path id="&lt;Path&gt;" class="s0" d="m503.34 636.37h-379.25v-26.77h379.25v26.77z" />
				<path id="&lt;Path&gt;" class="s1" d="m503.34 636.37h-164.91v-26.77h164.91v26.77z" />
				<path id="&lt;Path&gt;" class="s0" d="m180.12 899.2h-56.03v-262.82h56.03v262.82z" />
				<path id="&lt;Path&gt;" class="s1" d="m180.12 663.5l-56.03-19.08v-8.04h56.03v27.13z" />
				<path id="&lt;Path&gt;" class="s1" d="m503.34 899.2h-56.03v-262.82h56.03v262.82z" />
				<path id="&lt;Path&gt;" class="s0" d="m394.46 899.2h-56.03v-262.82h56.03v262.82z" />
				<path id="&lt;Path&gt;" class="s1" d="m394.46 663.5l-56.03-19.08v-8.04h56.03v27.13z" />
				<path id="&lt;Path&gt;" class="s1" d="m288.99 899.2h-56.03v-262.82h56.03v262.82z" />
			</g>
			<g id="&lt;Group&gt;">
				<path id="&lt;Path&gt;" class="s0" d="m539 420.5h-478v-407h478v407z" />
				<path id="&lt;Path&gt;" class="s1" d="m539 13.5h5.33v407h-5.33v-407z" />
				<path id="&lt;Path&gt;" class="s2" d="m79 402.5v-371h442v371h-442z" />
			</g>
			<g id="&lt;Group&gt;">
				<path id="&lt;Path&gt;" class="s3" d="m294.66 346.17c26.93-90.08 34.5-222.74 91.94-204.43c38.29 12.21 32.36 83.74-17.81 214.6l-74.13-10.16z" />
				<path id="&lt;Path&gt;" class="s3" d="m235.12 356.33c-56.92-200.89-56.92-302.67 0-305.31c85.38-3.97 78.46 169.2 105.94 299.64l-105.94 5.67z" />
				<g id="&lt;Group&gt;">
					<path id="&lt;Path&gt;" class="s0" d="m415.73 349.84c3.8 86.1-10.3 173.86-36.55 259.77h-143.13c-26.25-85.91-40.35-173.67-36.55-259.77c0.34-7.71 6.65-13.81 14.96-13.81h186.9c7.72 0 14.02 6.1 14.36 13.81z" />
				</g>
			</g>
			<g id="&lt;Group&gt;">
				<g id="&lt;Group&gt;">
					<g id="&lt;Group&gt;">
						<path id="&lt;Path&gt;" class="s1" d="m826.6 899.2h-10.53v-840.3h10.53v840.3z" />
						<path id="&lt;Path&gt;" class="s1" d="m1074.08 899.2h-10.53v-840.3h10.53v840.3z" />
						<path id="&lt;Path&gt;" class="s0" d="m751.93 899.2h-10.53v-840.3h10.53v840.3z" />
						<path id="&lt;Path&gt;" class="s0" d="m999.4 899.2h-10.53v-840.3h10.53v840.3z" />
						<path id="&lt;Path&gt;" class="s0" d="m1074.08 64.64h-332.68v-11.49h332.68v11.49z" />
						<path id="&lt;Path&gt;" class="s0" d="m1074.08 270.41h-332.68v-11.49h332.68v11.49z" />
						<path id="&lt;Path&gt;" class="s0" d="m1074.08 476.18h-332.68v-11.49h332.68v11.49z" />
						<path id="&lt;Path&gt;" class="s0" d="m1074.08 681.95h-332.68v-11.49h332.68v11.49z" />
						<path id="&lt;Path&gt;" class="s0" d="m1074.08 887.71h-332.68v-11.49h332.68v11.49z" />
						<path id="&lt;Path&gt;" class="s1" d="m1074.08 64.64h-74.67v-11.49h74.67v11.49z" />
						<path id="&lt;Path&gt;" class="s1" d="m1074.08 270.4h-74.67v-11.49h74.67v11.49z" />
						<path id="&lt;Path&gt;" class="s1" d="m1074.08 476.17h-74.67v-11.49h74.67v11.49z" />
						<path id="&lt;Path&gt;" class="s1" d="m1074.08 681.94h-74.67v-11.49h74.67v11.49z" />
						<path id="&lt;Path&gt;" class="s1" d="m1074.08 887.71h-74.67v-11.49h74.67v11.49z" />
					</g>
				</g>
				<path id="&lt;Path&gt;" class="s4" d="m894.76 142.29h0c10.58 0 19.16 8.58 19.16 19.16v97.47h-116.63v-97.47c0-10.58 8.58-19.16 19.16-19.16c10.58 0 19.16-8.58 19.16-19.16v-16.19h40v16.19c0 10.58 8.58 19.16 19.16 19.16z" />
				<g id="&lt;Group&gt;">
					<path id="&lt;Path&gt;" class="s4" d="m958.36 464.69h-175.26v-66.92h175.26v66.92z" />
					<path id="&lt;Path&gt;" class="s5" d="m958.36 397.77h30.51v66.92h-30.51v-66.92z" />
					<path id="&lt;Path&gt;" class="s0" d="m958.36 427.54h30.51v7.37h-30.51v-7.37z" />
					<path id="&lt;Path&gt;" class="s2" d="m958.36 434.91h-175.26v-7.37h175.26v7.37z" />
				</g>
				<g id="&lt;Group&gt;">
					<path id="&lt;Path&gt;" class="s4" d="m911.4 876.23h-136.89v-118.32h136.89v118.32z" />
					<path id="&lt;Path&gt;" class="s5" d="m911.4 757.91h23.83v118.32h-23.83v-118.32z" />
					<path id="&lt;Path&gt;" class="s0" d="m911.4 810.55h23.83v13.04h-23.83v-13.04z" />
					<path id="&lt;Path&gt;" class="s2" d="m911.4 823.59h-136.89v-13.04h136.89v13.04z" />
					<path id="&lt;Path&gt;" class="s0" d="m911.4 796.75h23.83v4.66h-23.83v-4.66z" />
					<path id="&lt;Path&gt;" class="s2" d="m911.4 801.4h-136.89v-4.66h136.89v4.66z" />
				</g>
				<g id="&lt;Group&gt;">
					<g id="&lt;Group&gt;">
						<path id="&lt;Path&gt;" class="s4" d="m807.9 670.45h-24.79v-120.29h24.79v120.29z" />
						<path id="&lt;Path&gt;" class="s6" d="m807.9 627.59h-24.79v-34.57h24.79v34.57z" />
						<path id="&lt;Path&gt;" class="s5" d="m807.9 550.16h84.3v120.29h-84.3v-120.29z" />
					</g>
					<g id="&lt;Group&gt;">
						<path id="&lt;Path&gt;" class="s0" d="m846.17 670.45h-28v-135.85h28v135.85z" />
						<path id="&lt;Path&gt;" class="s6" d="m846.17 598.7h-28v-20.92h28v20.92z" />
						<path id="&lt;Path&gt;" class="s6" d="m846.17 633.63h-28v-20.92h28v20.92z" />
						<path id="&lt;Path&gt;" class="s1" d="m846.17 534.6h95.2v135.85h-95.2v-135.85z" />
					</g>
					<g id="&lt;Group&gt;">
						<path id="&lt;Path&gt;" class="s4" d="m877.32 670.45h-15.08v-120.29h15.08v120.29z" />
						<path id="&lt;Path&gt;" class="s6" d="m874.73 655.21h-9.89v-89.81h9.89v89.81z" />
						<path id="&lt;Path&gt;" class="s5" d="m877.32 550.16h51.26v120.29h-51.26v-120.29z" />
					</g>
					<g id="&lt;Group&gt;">
						<path id="&lt;Path&gt;" class="s0" d="m917.62 670.45h-17.03v-126.64h17.03v126.64z" />
						<path id="&lt;Path&gt;" class="s6" d="m917.62 603.56h-17.03v-19.5h17.03v19.5z" />
						<path id="&lt;Path&gt;" class="s6" d="m917.62 636.12h-17.03v-19.5h17.03v19.5z" />
						<path id="&lt;Path&gt;" class="s1" d="m917.62 543.81h57.89v126.64h-57.89v-126.64z" />
					</g>
				</g>
				<path id="&lt;Path&gt;" class="s2" d="m883.48 397.77c-20.6 0-37.31-16.7-37.31-37.31c0-20.6 16.7-37.31 37.31-37.31c20.6 0 37.31 16.7 37.31 37.31c0 20.6-16.7 37.31-37.31 37.31z" />
				<path id="&lt;Path&gt;" class="s0" d="m924.76 397.77c-14.29 0-25.87-11.58-25.87-25.87c0-14.29 11.58-25.87 25.87-25.87c14.29 0 25.87 11.58 25.87 25.87c0 14.29-11.58 25.87-25.87 25.87z" />
			</g>
		</g>
	</g>
	<g id="Shadow">
		<path id="&lt;Path&gt; 356 " class="s2" d="m1179.67 1000.71c0 18.76-260.42 33.97-581.67 33.97c-321.25 0-581.67-15.21-581.67-33.97c0-18.76 260.42-33.97 581.67-33.97c321.25 0 581.67 15.21 581.67 33.97z" />
	</g>
	<g id="Box">
		<g id="&lt;Group&gt;">
			<path id="&lt;Path&gt;" class="s7" d="m611.66 967.08c0 10.72-8.69 19.41-19.41 19.41h-346.51c-10.72 0-19.41-8.69-19.41-19.41v-199.01h385.33v199.01z" />
			<g id="&lt;Group&gt;">
				<path id="&lt;Path&gt;" class="s7" d="m192.78 725.15c-3.68-4.71-0.51-8.52 7.07-8.52h245.18c7.59 0 16.72 3.82 20.39 8.52l33.55 42.92h-272.65l-33.55-42.92z" />
				<path id="&lt;Path&gt;" class="s8" d="m192.78 725.15c-3.68-4.71-0.51-8.52 7.07-8.52h245.18c7.59 0 16.72 3.82 20.39 8.52l33.55 42.92h-272.65l-33.55-42.92z" />
			</g>
			<path id="&lt;Path&gt;" class="s7" d="m611.66 768.07h-272.65l33.55-27.98c3.68-3.07 12.81-5.55 20.39-5.55h245.18c7.59 0 10.75 2.49 7.07 5.55l-33.55 27.98z" />
			<path id="&lt;Path&gt;" class="s9" d="m611.66 967.08c0 10.72-8.69 19.41-19.41 19.41h-233.83c-10.72 0-19.41-8.69-19.41-19.41v-199.01h272.65v199.01z" />
			<path id="&lt;Path&gt;" class="s10" d="m305.17 768.07v136.44l-9.05-6.23l-8.24 6.23l-5.89-8.28l-5.77 8.28l-6.63-7.44l-9.42 7.44v-136.44h45z" />
		</g>
	</g>
	<g id="Character">
		<g id="&lt;Group&gt;">
			<g id="&lt;Group&gt;">
				<path id="&lt;Path&gt;" class="s11" d="m321.17 470.44l-48.46-40.68" />
				<path id="&lt;Path&gt;" class="s11" d="m346.28 491.52l-14.78-12.41" />
				<path id="&lt;Path&gt;" class="s7" d="m469.91 578.16l-192.04-161.23c-5.2-4.37-5.81-11.42-1.42-16.46l20.89-40.47l141.11-161.79l212.82 178.66l-159.83 199.78c-5.23 6-15.32 6.7-21.51 1.5z" />
				<path id="&lt;Path&gt;" class="s10" d="m416.54 459.03l-23.01 37.06l-5.81-9.19l-7.54-2.21l-2.84-7.33l-6.17-0.36l-3.14-8.6l-9.25-1.99l23.01-37.06l34.74 29.68z" />
				<path id="&lt;Path&gt;" class="s12" d="m644.3 371.04l-143.35 159.91l-203.62-170.94l141.11-161.79l205.86 172.82z" />
				<g id="&lt;Group&gt;">
					<path id="&lt;Path&gt;" class="s7" d="m701.41 373.55l-141.11 161.79l-59.35-4.39l143.35-159.91l57.11 2.51z" />
					<path id="&lt;Path&gt;" class="s13" d="m701.41 373.55l-141.11 161.79l-59.35-4.39l143.35-159.91l57.11 2.51z" />
				</g>
				<g id="&lt;Group&gt;">
					<path id="&lt;Path&gt;" class="s7" d="m438.44 198.22l-141.11 161.79l-59.35-4.39l143.35-159.91l57.11 2.51z" />
					<path id="&lt;Path&gt;" class="s14" d="m438.44 198.22l-141.11 161.79l-59.35-4.39l143.35-159.91l57.11 2.51z" />
				</g>
				<path id="&lt;Path&gt;" class="s12" d="m412.08 261.7l26.37-63.47l205.86 172.82l-44.14 49.24l-188.08-158.59z" />
				<path id="&lt;Path&gt;" class="s8" d="m297.33 360.01l141.11-161.79l-26.37 63.47l-99.35 111.24l-15.39-12.92z" />
			</g>
			<g id="&lt;Group&gt;">
				<path id="&lt;Path&gt;" class="s15" d="m694.04 70.02c0.57 1.94 0 3.81-1.26 4.18c-1.27 0.37-2.75-0.9-3.32-2.83c-0.57-1.94 0-3.81 1.26-4.18c1.27-0.37 2.75 0.9 3.32 2.83z" />
				<path id="&lt;Path&gt;" class="s16" d="m699.6 92.08c-3.6 2.11-6.85 2.44-9.76 0.98c2.18-4.54 3.64-10.97 4.39-19.28l5.37 18.3z" />
				<path id="&lt;Path&gt;" class="s15" d="m697.03 57.26c-4.93-1.74-8.38 0.78-8.52 0.89c-0.51 0.39-1.26 0.3-1.66-0.22c-0.4-0.52-0.3-1.26 0.22-1.66c0.19-0.14 4.56-3.42 10.75-1.24c0.62 0.22 0.94 0.89 0.73 1.51c-0.1 0.29-0.31 0.52-0.56 0.65c-0.28 0.15-0.62 0.18-0.95 0.07z" />
				<path id="&lt;Path&gt;" class="s17" d="m760.72 82.85c1.31 15.9 5.25 45.08 14.65 51.72c-1.49 12.74-13.46 20.76-35.89 24.07c-24.67 3.64-31.47-1.61-20.4-15.76c19.48-7.81 16.75-22.71 11.15-36.27l14.3-16.39c5.37-6.15 15.52-15.51 16.19-7.38z" />
				<path id="&lt;Path&gt;" class="s3" d="m715.56 153.96c-2.06-4.87-1.67-9.56 1.17-14.07c14.86-12.78 54.38-16.79 64.05-12.73c3.63 1.52 9.7 12.44 6.69 15.16l-71.9 11.64z" />
				<path id="&lt;Compound Path&gt;" fill-rule="evenodd" class="s7" d="m913.27 944.22c-2.46 0.75-4.95 1.11-6.24 0.18c-0.54-0.39-1.12-1.17-0.8-2.7c0.17-0.8 0.63-1.43 1.37-1.87c3.23-1.89 11.24 0.61 11.58 0.71c0.22 0.07 0.38 0.27 0.41 0.5c0.03 0.23-0.09 0.46-0.29 0.58c-1.14 0.67-3.57 1.83-6.03 2.59zm-4.4-3.64c-0.25 0.08-0.48 0.17-0.67 0.29c-0.45 0.26-0.71 0.62-0.81 1.08c-0.23 1.09 0.2 1.39 0.34 1.49c1.44 1.03 6.33-0.45 9.72-2.15c-2.45-0.64-6.39-1.38-8.57-0.72z" />
				<path id="&lt;Compound Path&gt;" fill-rule="evenodd" class="s7" d="m919.18 941.69c-0.09 0.03-0.19 0.03-0.29 0.01c-2.89-0.59-9.28-4.36-9.6-7.18c-0.06-0.51 0.04-1.46 1.35-2.04c0.85-0.38 1.73-0.38 2.64-0.01c3.48 1.42 6.17 8.15 6.28 8.43c0.08 0.2 0.04 0.43-0.1 0.6c-0.08 0.09-0.17 0.15-0.28 0.19zm-7.8-8.22c-0.08 0.03-0.17 0.06-0.25 0.09c-0.71 0.32-0.67 0.67-0.65 0.83c0.18 1.67 4.45 4.69 7.48 5.81c-0.9-1.93-2.9-5.72-5.13-6.63c-0.51-0.21-0.99-0.24-1.45-0.1z" />
				<path id="&lt;Compound Path&gt;" fill-rule="evenodd" class="s7" d="m737.45 976.45c-3.21 0-6.31-0.44-7.35-1.89c-0.36-0.5-0.65-1.36 0.05-2.59c0.39-0.69 1.02-1.15 1.88-1.39c4.16-1.13 12.91 3.85 13.28 4.06c0.21 0.12 0.33 0.37 0.29 0.61c-0.04 0.24-0.23 0.44-0.47 0.49c-1.6 0.32-4.68 0.7-7.68 0.7zm-3.97-4.85c-0.42 0-0.8 0.04-1.15 0.14c-0.55 0.15-0.93 0.42-1.16 0.83c-0.42 0.74-0.27 1.1-0.11 1.31c1.16 1.62 7.49 1.66 12.14 1c-2.32-1.19-6.8-3.27-9.72-3.27z" />
				<path id="&lt;Compound Path&gt;" fill-rule="evenodd" class="s7" d="m745.01 975.75c-0.08 0-0.16-0.02-0.24-0.05c-3.02-1.36-9-6.77-8.55-9.6c0.11-0.66 0.58-1.49 2.21-1.66c1.22-0.12 2.32 0.22 3.29 1.02c3.18 2.61 3.86 9.36 3.89 9.64c0.02 0.21-0.07 0.42-0.24 0.54c-0.1 0.07-0.22 0.11-0.35 0.11zm-6.11-10.15c-0.12 0-0.24 0.01-0.36 0.02c-1.07 0.11-1.13 0.53-1.16 0.67c-0.27 1.7 3.79 5.95 6.87 7.8c-0.32-1.97-1.21-6-3.3-7.72c-0.63-0.52-1.31-0.77-2.06-0.77z" />
				<path id="&lt;Path&gt;" class="s17" d="m772.53 975.16h-25.03l-2.49-57.96h25.03l2.49 57.96z" />
				<path id="&lt;Path&gt;" class="s17" d="m948.48 935.59l-23.06 7.95l-23.94-54.64l23.06-7.95l23.94 54.64z" />
				<path id="&lt;Path&gt;" class="s15" d="m919.94 937.81l26.88-8.24c0.98-0.3 2.03 0.12 2.54 1.01l11.25 19.82c1.17 2.06 0.07 4.67-2.2 5.33c-9.43 2.72-14.16 3.56-25.98 7.19c-7.27 2.23-25.62 9.19-35.92 11.26c-10.07 2.03-13.69-7.84-9.66-9.61c18.07-7.94 25.39-16.97 29.66-24.09c0.77-1.28 2-2.22 3.43-2.66z" />
				<path id="&lt;Path&gt;" class="s15" d="m747.67 972.26l27.33 0c1.02 0 1.91 0.71 2.13 1.71l4.94 22.24c0.51 2.31-1.24 4.49-3.6 4.45c-9.86-0.17-24.1-0.75-36.5-0.75c-14.49 0-20.6 0.79-37.59 0.79c-10.27 0-13.13-10.39-8.82-11.33c19.58-4.28 29.16-4.74 46.08-15.17c1.84-1.13 3.87-1.95 6.03-1.95z" />
				<g id="&lt;Group&gt;">
					<g id="&lt;Group&gt;">
						<path id="&lt;Path&gt;" class="s17" d="m820.42 150.53c7.28 6.69 13.59 13.38 20.12 20.36c6.38 7.02 12.61 14.23 18.49 21.93c5.93 7.66 11.56 15.7 16.67 24.74c2.55 4.55 4.99 9.32 7.03 14.82c0.51 1.39 1.02 2.74 1.45 4.29c0.45 1.49 0.89 2.98 1.23 4.69l0.51 2.48l0.35 2.76c0.22 1.33 0.43 4.98 0.01 7.65c-0.78 5.63-2.98 9.97-5.16 13.31c-2.22 3.32-4.6 5.8-6.91 7.96c-4.64 4.27-9.19 7.28-13.7 9.99c-9.02 5.31-17.97 9.11-26.94 12.56c-17.99 6.76-35.92 11.47-54.53 14.99l-5.25-18.04c16.29-7.06 32.78-14.66 48.1-22.82c7.63-4.09 15.04-8.49 21.32-13.13c3.11-2.29 5.95-4.73 7.78-6.88c0.92-1.05 1.54-2.05 1.78-2.57c0.22-0.51-0.09-0.45-0.33 0.63c-0.2 2.01-0.15 0.45-0.65-0.63c-0.13-0.52-0.42-1.2-0.69-1.87c-0.22-0.64-0.61-1.39-0.94-2.12c-1.42-2.94-3.3-6.23-5.42-9.51c-4.31-6.59-9.53-13.27-15-19.83c-5.52-6.55-11.33-13.05-17.3-19.45c-5.86-6.41-12.25-12.82-18.12-18.77l26.1-27.53z" />
					</g>
					<path id="&lt;Path&gt;" class="s17" d="m789.06 306.7c-2.04 7.9-7.72 13.78-17.03 17.63l-15.18-24.96l23.76-7.14l8.46 14.48z" />
					<path id="&lt;Path&gt;" class="s17" d="m756.84 299.36l15.18 24.96l-15.27 4.46l-9.29-20.59l9.38-8.83z" />
					<g id="&lt;Group&gt;">
						<g id="&lt;Group&gt;">
							<path id="&lt;Path&gt;" class="s7" d="m826.42 146.74c17.35 11.14 29.37 23.89 36.07 38.24l-48.88 33.45c-33.85-24.78-50.02-45.15-48.52-61.12c2.81-29.82 33.36-28.52 61.33-10.57z" />
						</g>
						<g id="&lt;Group&gt;" style="opacity: .3">
							<path id="&lt;Path&gt;" class="s3" d="m826.42 146.74c17.35 11.14 29.37 23.89 36.07 38.24l-48.88 33.45c-33.85-24.78-50.02-45.15-48.52-61.12c2.81-29.82 33.36-28.52 61.33-10.57z" />
						</g>
					</g>
				</g>
				<g id="&lt;Group&gt;">
					<g id="&lt;Group&gt;">
						<path id="&lt;Path&gt;" class="s7" d="m719.08 142.88c14.67-3.55 39.25-6.63 56.29-8.32c3.91-0.39 7.87-0.66 11.73-0.86c17.7-0.9 32.58 13.19 32.72 30.91c0.73 87.29 22.88 167.1 24.75 185.41l-132.42 19.56c-34.73-120.37-44.77-191.77-30.14-214.21c11.81-5.21 24.17-9.37 37.07-12.5z" />
					</g>
					<g id="&lt;Group&gt;" style="opacity: .3">
						<path id="&lt;Path&gt;" class="s3" d="m719.08 142.88c14.67-3.55 39.25-6.63 56.29-8.32c3.91-0.39 7.87-0.66 11.73-0.86c17.7-0.9 32.58 13.19 32.72 30.91c0.73 87.29 22.88 167.1 24.75 185.41l-132.42 19.56c-34.73-120.37-44.77-191.77-30.14-214.21c11.81-5.21 24.17-9.37 37.07-12.5z" />
					</g>
				</g>
				<path id="&lt;Path&gt;" class="s8" d="m678.76 213.39l0.44-0.51l31.16 2.77c4.72 20.1-12.61 47.52-21.75 60.24c-5.32-25.76-8.31-46.26-9.85-62.49z" />
				<g id="&lt;Group&gt;">
					<path id="&lt;Path&gt;" class="s8" d="m770.05 917.22l1.28 29.87h-25.04l-1.28-29.87h25.04z" />
					<path id="&lt;Path&gt;" class="s8" d="m936.91 909.12l-23.07 7.95l-12.35-28.16l23.07-7.95l12.35 28.16z" />
				</g>
				<path id="&lt;Path&gt;" class="s17" d="m757.44 46.96c5.52 24.22 9.98 38.11 1.55 53.84c-12.68 23.67-45.24 21.39-57.89-0.68c-11.38-19.87-18.5-56.14 2.01-72.44c20.2-16.06 48.8-4.94 54.33 19.28z" />
				<path id="&lt;Path&gt;" class="s15" d="m708.81 70.7l-9.21 5.64l0.88-31.5c-6.44 0.44-12-1.17-16.67-4.83c3.33-3.17 55.17-21.33 71.33-18.17c1.11-0.47 2.35-1.75 3.73-3.83c0.42 2.63-0.29 4.44-2.13 5.44c2-0.38 6.93 0.56 8.31 3.48c-2.9-0.61-5.19-0.48-6.88 0.4c12.09 1.81 15.96 11.04 11.63 27.69c-4.78 18.33-6.37 32.78-4.79 43.33c-8.92 6.89-17.27 9.69-25.05 8.42c-12.42-13.67-30.33-30.11-31.17-36.05z" />
				<path id="&lt;Path&gt;" class="s15" d="m691.18 37.5c-14.63 0.12-19.88-7.13-23.63-13.13c10.5-1.13 32.38-7.88 48.62-9c16.25-1.13 34 1.88 28.63 8.87c-3.58 4.67-21.46 9.08-53.63 13.25z" />
				<path id="&lt;Path&gt;" class="s15" d="m694.4 30.99c-11.92-1.66-23.72-12.99-14.72-23.83c3.33 7.98 25.82 7.04 41.76 3.71c20.91-4.38 35.55 2.69 28.11 17c-2.72 5.22-21.1 6.26-55.15 3.12z" />
				<path id="&lt;Path&gt;" class="s17" d="m721.79 63.53c1.9 6.22 1.21 13-0.8 18.01c-3.02 7.54-9.66 6.01-13.12-0.51c-3.11-5.87-5.29-16.87-0.2-22.3c5.02-5.35 11.94-2.31 14.12 4.8z" />
				<path id="&lt;Path&gt;" class="s15" d="m844.57 350.02c10.47 126.65 19.37 218.06 26.71 274.24c9.55 73.13 32.33 163.4 68.32 270.79l-42.11 14.53c-56.14-142.65-89.9-240.13-101.29-292.44c-10.39-47.77-22.75-132.6-37.08-254.5l85.45-12.62z" />
				<path id="&lt;Path&gt;" class="s7" d="m938.66 883.54l5.75 14.65l-49.05 15.92c-5.87-11.94-8.75-17.93-8.62-17.98l51.92-12.6z" />
				<path id="&lt;Path&gt;" class="s18" d="m770.97 456.47c6.72 50.8 15.33 110.87 22.91 149.43c10.96-59.02 13.74-133.27-22.91-149.43z" />
				<path id="&lt;Path&gt;" class="s15" d="m807.37 355.52c-21.24 122.15-32.55 211.55-33.92 268.22c-1.26 51.97 0.71 157.83 5.92 317.58h-42.39c-24.72-162.84-38.03-270.71-39.92-323.64c-1.81-50.88 3.22-133.58 15.1-248.09l95.22-14.06z" />
				<path id="&lt;Path&gt;" class="s7" d="m784.17 926.32l-1.39 15.71h-51.57c-1.72-11.73-2.52-17.6-2.39-17.6l55.36 1.89z" />
				<g id="&lt;Group&gt;">
					<path id="&lt;Path&gt;" class="s17" d="m703.94 197.56c-4.69 7.44-9.43 14.13-14.37 21.02c-4.89 6.84-10.06 13.49-15.32 20.1c-10.64 13.14-21.98 25.85-34.71 37.85c-3.37 2.92-6.47 5.92-10.08 8.72l-2.64 2.12l-1.32 1.06c-0.49 0.39-0.69 0.59-1.69 1.3c-3.33 2.42-6.62 3.92-9.68 5.01c-6.17 2.11-11.53 2.6-16.58 2.83c-5.04 0.21-9.76-0.11-14.32-0.64c-18.2-2.24-34.24-7.32-50.24-14.2l5.17-18.06c15.55 1.55 31.8 2.88 46.28 2.22c3.6-0.21 7.08-0.57 10.18-1.11c3.07-0.54 5.85-1.42 7.32-2.29c0.74-0.4 1.13-0.78 1.03-0.87c-0.17 0.12 0.38-0.38 0.67-0.65l1-0.94l2.01-1.88c2.7-2.4 5.27-5.32 7.9-7.94c5.19-5.59 10.33-11.32 15.25-17.42c5.01-5.97 9.84-12.21 14.62-18.49c4.81-6.28 9.45-12.71 14.15-19.11c4.63-6.38 9.24-13.09 13.55-19.31l31.81 20.67z" />
				</g>
				<g id="&lt;Group&gt;">
					<g id="&lt;Group&gt;">
						<path id="&lt;Path&gt;" class="s7" d="m721.35 189.6c6.73 21.99-9.42 45.18-48.43 69.59l-38.03-48.47c7.03-14.19 17.53-28.88 31.49-44.07c25.87-28.16 47.29-2.15 54.97 22.96z" />
					</g>
					<g id="&lt;Group&gt;" style="opacity: .3">
						<path id="&lt;Path&gt;" class="s3" d="m721.35 189.6c6.73 21.99-9.42 45.18-48.43 69.59l-38.03-48.47c7.03-14.19 17.53-28.88 31.49-44.07c25.87-28.16 47.29-2.15 54.97 22.96z" />
					</g>
				</g>
				<path id="&lt;Path&gt;" class="s17" d="m547.01 281.93c-7.76 9.35-16.97 11.04-27.63 5.07l-3.24-26.66l30.79 5.65l0.09 15.94z" />
				<path id="&lt;Path&gt;" class="s17" d="m516.14 260.34l3.24 26.66l-8.4-1.42l-6.66-19.23l11.82-6.01z" />
			</g>
		</g>
	</g>
</svg>