<svg width="942" height="1164" viewBox="0 0 942 1164" fill="none" xmlns="http://www.w3.org/2000/svg">
<g style="mix-blend-mode:multiply" opacity="0.1">
<g style="mix-blend-mode:multiply" opacity="0.1">
<path d="M920 992.2C920 1010.5 900.9 1025.4 877.5 1025.4L790 1025C799.1 1027 802.7 1032.3 805 1039C808.5 1049.3 808.2 1061.8 801 1070C796.9 1074.7 790.8 1077 787 1077L836.5 1076.3C859.9 1076.3 879 1091.2 879 1109.5V1122.8C879 1141 859.9 1156 836.5 1156H108.5C85.1 1156 66 1141 66 1122.8V1109.5C66 1101.3 69.8 1093.8 76.2 1088H53.5C30.1 1088 11 1073 11 1054.8C11 1036.5 30.1 1021.5 53.5 1021.5H118.6C105.2 1015.9 96 1004.9 96 992.2C96 974 115.1 959 138.5 959H877.5C900.9 959 920 974 920 992.2Z" fill="#606060"/>
</g>
</g>
<path d="M547.6 1014.4L572.1 1030.2L580.7 1042.7C574.833 1045.57 570.267 1047.43 567 1048.3C563.733 1049.1 549.133 1048.1 523.2 1045.3L522.2 1022.6L547.6 1014.4Z" fill="#273140"/>
<path d="M425 1031.6L437.1 1045.2C443.7 1057.47 445.333 1063.53 442 1063.4C437.1 1063.1 410.2 1064.5 408.4 1061.4C406.6 1058.4 392.3 1047.6 390.4 1045.5C389.2 1044.1 389.233 1037.63 390.5 1026.1L425 1031.6Z" fill="#273140"/>
<path d="M494.3 669.9L463.8 855.2L425 1031.6L390.3 1029.6L397 843.4C380.4 729.267 372.067 655.333 372 621.6L494.3 669.9Z" fill="#2E4661"/>
<path d="M570.8 679L556.8 1021L521.2 1022.6L502.2 848.9L474.6 695.6L548.3 600.7L570.8 679Z" fill="#2E4661"/>
<path d="M609.4 672.8C559.8 689.6 507.3 680.2 490.2 679.2C473 678.3 382.6 720.4 362.9 718.7C351.3 717.633 356.433 654.167 378.3 528.3C386.1 432.367 390 384.4 390 384.4L405.4 352.4C406 351.933 406.567 351.5 407.1 351.1C435.433 330.767 471.8 326.7 516.2 338.9C557.1 364.2 533.4 408 552.1 499C570.8 589.9 651.9 658.3 609.4 672.8V672.8Z" fill="#677B91"/>
<path d="M501.6 341.3L513.2 425.1L502.6 482.8L454.9 349.7L456.3 336.6L469.2 336.1L501.6 341.3Z" fill="white"/>
<path d="M502.6 482.8L495.8 464C495.933 461.266 495.967 458.566 495.9 455.9C495.7 439.1 490.133 409.733 479.2 367.8L472.4 360.7L471.4 344.3L487.1 346.9C487.3 351.233 487.8 355.933 488.6 361C501.2 383.933 508.5 404.233 510.5 421.9C510.9 425.7 511.2 430.4 511.3 435.7L502.6 482.8Z" fill="#2E4661"/>
<path d="M521.6 556.6L555.5 682.4L528.7 684.4L490 679L508.4 534L521.6 556.6Z" fill="white"/>
<path d="M486.8 341.9C477.933 342.233 469.033 342.6 460.1 343C459.1 336 458.5 328.9 458.6 321.8C450.9 320.3 442 317.6 439.6 310.1C438.9 307.8 438.9 305.3 439 302.8C439.3 292.7 436.5 282.3 440 272.3C441.1 269 440.2 265.2 441.7 262C444.2 256.3 450.3 253.2 456.1 251.3C471.1 246.4 488.4 247.4 501.7 255.8C505.3 258 508.6 260.9 510.5 264.6C513.5 270.3 512.9 277.2 512.1 283.6C511.433 289.533 510.733 295.467 510 301.4C509.2 308.2 507.8 316 501.8 319.4C498.6 321.2 494.6 321.4 491.8 323.7C486.9 327.9 488.8 335.8 486.8 341.9V341.9Z" fill="#E7CAAD"/>
<path d="M537.1 213.8C541.7 218 543.9 224.8 542 230.7C539.8 237.4 529.3 253.2 524.1 258.3C519.7 262.8 512.5 262.1 506.2 262.3C493.9 262.7 484.1 267.6 471.7 267.4C461.3 267.4 446.8 268.4 440.2 277.7C435.3 284.8 445.6 307.9 446.5 315.6C437.6 314.3 429 307 421.9 301.2C418.4 298.3 415.1 295.3 412.2 291.9C399.2 276.9 396 254 404.4 236C406.8 230.8 410.2 225.9 414.8 222.4C425.7 214.1 443.2 210.6 455.7 204C468.8 197.2 486 194.9 500.2 199.1C507.2 201.1 512.2 206.3 518.8 208.6C520.9 209.3 523 209.5 525 209.7C529.1 210.1 533.1 210.2 537.1 213.8Z" fill="#3A3029"/>
<path d="M615.8 433.4C614.6 435.6 611.133 447.033 605.4 467.7L575.2 464.8L508.4 353.2L527.8 336.9L608.5 410L615.8 433.4Z" fill="#6D8299"/>
<path d="M261.1 980.5C268.4 994.5 269.6 1009.2 264.8 1024.4C260 1039.7 250.6 1051 236.6 1058.3C228.2 1062.7 219.5 1064.9 210.6 1064.9C204.733 1064.9 198.8 1063.93 192.8 1062C177.5 1057.2 166.1 1047.7 158.9 1033.8C151.6 1019.9 150.4 1005.2 155.2 989.9C160 974.7 169.5 963.3 183.4 956.1C197.3 948.8 212 947.6 227.3 952.4C242.5 957.1 253.8 966.6 261.1 980.5Z" fill="#96432B"/>
<path d="M264.8 1024.4C260 1039.7 250.6 1051 236.6 1058.3C228.2 1062.7 219.5 1064.9 210.6 1064.9C204.733 1064.9 198.8 1063.93 192.8 1062C188.667 1060.73 184.8 1059.1 181.2 1057.1C182.333 1057.17 183.433 1057.2 184.5 1057.2C193.5 1057.2 202.2 1055 210.6 1050.6C224.5 1043.4 234 1032 238.8 1016.8C243.5 1001.6 242.3 986.8 235 972.9C229.7 962.7 222.2 955 212.7 949.6C217.5 949.867 222.367 950.8 227.3 952.4C242.5 957.1 253.8 966.6 261.1 980.5C268.4 994.5 269.6 1009.2 264.8 1024.4V1024.4Z" fill="#7F3524"/>
<path d="M555.8 726.7C537.6 784.3 507 821.8 464.6 838.2C424.7 853.6 372.8 852.4 310.5 834.6C309.5 834.3 308.4 834.9 308.1 835.9L283 915.7C279.4 927.2 268.7 934.5 257.3 934.5C254.7 934.5 251.9 934.1 249.3 933.3L216.1 922.9C209.2 920.7 203.6 916 200.3 909.6C197 903.3 196.3 896 198.5 889.1L237.3 765.8C241.8 751.7 256.9 743.8 271 748.2L285.2 752.7C338.2 769.9 380.1 775.3 410 768.5C438.4 762.1 459.6 737.3 473 694.9C482.7 664.1 481.4 637.1 469.4 614.7C457.2 592.3 435.2 575.9 403.7 566C372.2 556.1 344.6 556.4 321.8 567.1C302.9 575.9 289 591 279.1 613.3C273.6 625.8 259.5 632.2 246.5 628.1L213.7 617.8C206.6 615.5 200.6 610.3 197.5 603.5C194.3 596.7 194.1 588.8 196.9 581.9C213.9 540.7 241.7 510.9 279.7 493.3C323.4 473.1 373.5 471.7 428.4 489C483.4 506.3 523.3 536 547 577.5C570.9 619.2 573.8 669.4 555.8 726.7V726.7Z" fill="#96432B"/>
<path d="M555.8 726.7C537.6 784.3 507 821.8 464.6 838.2C439.8 847.7 410.5 850.9 376.9 847.7C391.367 846.1 404.733 842.933 417 838.2C459.4 821.8 490.1 784.3 508.2 726.7C526.3 669.4 523.3 619.2 499.5 577.5C475.8 536 435.8 506.3 380.9 489C364.233 483.733 348.033 480.2 332.3 478.4C362.3 474.7 394.4 478.2 428.4 489C483.4 506.3 523.3 536 547 577.5C570.9 619.2 573.8 669.4 555.8 726.7Z" fill="#7F3524"/>
<path d="M421.5 348.5L403.8 448.4L358.1 510.8L433 568L416.3 600.2L297.8 540.9L291.5 510.8L383 354.8L421.3 343L421.5 348.5Z" fill="#6D8299"/>
<path d="M515.1 347.5L499.5 344.4L482.9 341.3L488.1 322.5L506.8 317.3L526.2 338.2L515.1 347.5Z" fill="#D6BBA0"/>
<path d="M431.3 571.2L450 575L447 586L463.2 604.9L441 613L419.3 594.5L431.3 571.2Z" fill="#E7CAAD"/>
<path fill-rule="evenodd" clip-rule="evenodd" d="M593.1 126.8C593 94.9 618.8 69 650.7 68.8C655.8 68.8 660.7 69.5 665.5 70.7C670.9 37.5 699.6 12.1 734.3 12C760.5 11.9 783.4 26.2 795.5 47.4C802.7 39.8 812.9 35 824.3 34.9C846.3 34.8 864.2 52.6 864.2 74.6C864.2 75.0667 864.2 75.5 864.2 75.9C868.1 75 872.2 74.6 876.3 74.6C908.2 74.4 934.2 100.2 934.3 132.1C934.4 158.3 917.1 180.4 893.3 187.6C894.4 192.4 895 197.3 895 202.4C895.1 241.1 863.9 272.6 825.1 272.7C803.2 272.8 783.6 262.8 770.7 247C760.6 263.6 742.4 274.7 721.5 274.8C695.6 274.9 673.6 257.8 666.2 234.3C660.6 237.4 654.2 239.1 647.3 239.1C625.3 239.2 607.4 221.5 607.4 199.5C607.3 189.5 611 180.4 617 173.4C602.6 162.9 593.2 146 593.1 126.8V126.8ZM679.9 176.6C679.9 176.6 679.9 176.633 679.9 176.7C680.033 176.567 680.133 176.467 680.2 176.4C680.067 176.467 679.967 176.533 679.9 176.6V176.6Z" fill="#C5CCCC"/>
<path d="M657.8 290.7C659.9 304 650.8 316.5 637.5 318.6C632.1 319.5 626.7 318.5 622.2 316.1C620.2 323 614.4 328.5 606.8 329.7C596.4 331.4 586.6 324.3 584.9 313.8C584.633 312.267 584.567 310.767 584.7 309.3C575.6 310.2 567.2 303.8 565.7 294.6C564.2 285.1 570.7 276.1 580.2 274.5C582.2 274.2 584.1 274.3 586 274.6C587.9 264.8 595.7 256.8 606.1 255.1C617.6 253.3 628.5 259.8 632.6 270.1C644.8 269.6 655.8 278.3 657.8 290.7V290.7Z" fill="#C5CCCC"/>
</svg>
