<svg version="1.2" baseProfile="tiny-ps" xmlns="http://www.w3.org/2000/svg" viewBox="0 0 1436 1346" width="1436" height="1346">
	<title>3371470-ai</title>
	<style>
		tspan { white-space:pre }
		.s0 { fill: #f5f5f5 } 
		.s1 { fill: #e0e0e0 } 
		.s2 { fill: #f0f0f0 }  
		.s3 { fill: #fafafa } 
		.s4 { fill: #ffffff } 
		.s5 { fill: #ebebeb } 
		.s6 { fill: none;stroke: #27debf;stroke-width: 2.6 } 
		.s7 { fill: none;stroke: #27debf;stroke-linecap:round;stroke-linejoin:round;stroke-width: 2.6 } 
		.s8 { fill: #263238 } 
		.s9 { fill: #37474f } 
		.s10 { fill: #455a64 } 
		.s11 { fill: none;stroke: #fafafa;stroke-width: 2.2 } 
		.s12 { opacity: .2;fill: #000000 } 
		.s13 { fill: none;stroke: #fafafa;stroke-linecap:round;stroke-linejoin:round;stroke-width: 2.2 } 
		.s14 { opacity: .1;fill: #000000 } 
		.s15 { fill: #27debf } 
		.s16 { opacity: .5;fill: #000000 } 
		.s17 { opacity: .4;fill: #000000 } 
		.s18 { opacity: .3;fill: #000000 } 
		.s19 { opacity: .7;fill: #ffffff } 
		.s20 { fill: #ffa8a7 } 
		.s21 { fill: #f28f8f } 
	</style>
	<g id="Floor">
		<path id="Floor 7 " class="s0" d="m1216.36 641.11c275.66 159.15 275.66 417.2 0 576.35c-275.67 159.16-722.61 159.16-998.27 0c-275.66-159.15-275.66-417.2 0-576.35c275.67-159.16 722.61-159.16 998.27 0z" />
	</g>
	<g id="Shadow">
		<path id="Shadow 29 " class="s1" d="m1324.25 931.78c78.2 45.15 78.2 118.35 0 163.5c-78.2 45.15-204.99 45.15-283.19 0c-78.2-45.15-78.2-118.35 0-163.5c78.2-45.15 204.99-45.15 283.19 0z" />
		<path id="Shadow 28 " class="s1" d="m675.85 1075.89l-225.89-130.46l258.2-149.07l225.93 130.44l-258.24 149.09z" />
		<path id="Shadow 27 " class="s1" d="m305.12 894.48l291.36 168.22l-244.39 141.05l-291.36-168.22l244.39-141.05z" />
	</g>
	<g id="Shelf">
		<g id="Shelf 2 ">
			<g id="Shelf">
				<path id="&lt;Path&gt;" class="s2" d="m491.54 244.89c-0.05 1.57-1.15 3.17-3.31 4.41l-287.36 164.91c-4.24 2.44-11.12 2.44-15.37 0l-99.96-57.36c-2.16-1.24-3.26-2.84-3.31-4.41h-0.01v-16.55h0.01c0.05-1.57 1.15-3.17 3.31-4.41l287.36-164.91c4.24-2.44 11.12-2.44 15.37 0l99.96 57.36c2.16 1.24 3.26 2.84 3.31 4.41h0.01v16.55h-0.01z" />
				<path id="&lt;Path&gt;" class="s3" d="m85.55 331.48l287.36-164.91c4.24-2.44 11.12-2.44 15.37 0l99.96 57.36c4.24 2.44 4.24 6.38 0 8.82l-287.36 164.91c-4.24 2.44-11.12 2.44-15.37 0l-99.96-57.36c-4.24-2.44-4.24-6.38 0-8.82z" />
				<path id="&lt;Path&gt;" class="s1" d="m193.18 399.5v16.54c-2.77 0-5.54-0.63-7.67-1.83l-99.97-57.36c-2.17-1.23-3.27-2.86-3.3-4.41h-0.04v-16.54h0.04c0.02-0.63 0.27-1.26 0.63-1.87c-1.16 2.13-0.29 4.59 2.67 6.28l99.97 57.36c2.09 1.23 4.9 1.83 7.67 1.83z" />
			</g>
			<g id="Book 2 ">
				<g id="&lt;Group&gt;">
					<path id="&lt;Path&gt;" class="s1" d="m386.79 179.29l84.68 48.29l-139.91 80.29l-84.69-48.28l139.92-80.3z" />
					<path id="&lt;Path&gt;" class="s4" d="m332.53 304.2l-81.69-46.88c2.13-6.06 1.97-13.12-0.44-21.19l81.17 46.39c1.03 3.41 1.36 10.64 0.96 21.68z" />
					<path id="&lt;Path&gt;" class="s5" d="m327.4 275.9c4.34 2.49 7.85 8.54 7.85 13.51v15.79c0 4.98-3.51 6.99-7.85 4.5l-80.51-46.2l-0.01-3.91l79.44 45.3c2.6 1.49 4.71 0.28 4.7-2.7l-0.07-14.63c0-2.99-2.11-6.62-4.71-8.11l-79.34-45.32v-4.43l80.51 46.21z" />
					<path id="&lt;Path&gt;" class="s3" d="m246.89 229.7l139.91-80.29l80.51 46.2c4.33 2.49 7.85 8.54 7.85 13.51l0 15.79c0 2.48-0.87 4.23-2.3 5.05l-139.91 80.29c1.43-0.82 2.3-2.57 2.3-5.05l0.01-15.8c0-4.97-3.52-11.03-7.85-13.51l-80.52-46.19z" />
					<path id="&lt;Path&gt;" class="s2" d="m472.85 201.44c1.42 2.45 2.3 5.2 2.3 7.69l0 15.79c0 2.48-0.87 4.23-2.3 5.05l-139.91 80.29c1.43-0.82 2.3-2.57 2.3-5.05l0.01-15.8c0-2.49-0.88-5.24-2.3-7.69l139.89-80.28z" />
				</g>
			</g>
			<g id="Book 1 ">
				<path id="&lt;Path&gt;" class="s5" d="m256.66 194.62l-2.13 6.22l-94.55-50.72l0.79-10.69l95.89 55.19z" />
				<path id="&lt;Path&gt;" class="s4" d="m241.28 208.06l-93.39-54.64l15.93-9.2l91.59 52.87l-14.13 10.96z" />
				<path id="&lt;Path&gt;" class="s1" d="m234.69 208.52l3.83 2.22c0.77 0.44 1.75 0.69 2.76 0.77l33.02 134.43c-1.01-0.08-1.99-0.34-2.76-0.78l-53.13-30.75c-1.87-1.08-3.39-3.71-3.39-5.88l9.05-106.13l10.61 6.12z" />
				<path id="&lt;Path&gt;" class="s2" d="m245.32 210.74l9.47-8.11l6.96-5.96c0.71-1.13 1.54-1.98 1.09-2.91l32.58 133.47l0.05 0.1c0.46 0.94 0.58 3.04-0.7 3.77l-16.43 14.06c-1.11 0.64-2.61 0.9-4.04 0.78l-33.02-134.43c1.42 0.12 2.93-0.14 4.04-0.77z" />
				<path id="&lt;Path&gt;" class="s3" d="m261.75 192.74c1.88 1.08 1.41 2.29 0 3.92l-16.43 14.07c-1.88 1.08-4.92 1.08-6.79 0l-14.45-8.34c-1.88-1.08-2.21-2.65-0.74-3.49c1.47-0.85 4.18-0.65 6.05 0.43l11.4 6.58c0.62 0.36 1.64 0.36 2.26 0l12.01-10.43c0.63-0.36 0.63-0.95 0-1.31l-94.29-54.75l4.52-2.61l96.46 55.92z" />
			</g>
			<g id="Book">
				<g id="&lt;Group&gt;">
					<path id="&lt;Path&gt;" class="s5" d="m133.48 144.56l90.09 52.05v171.4l-90.09-52.04v-171.41z" />
					<path id="&lt;Path&gt;" class="s4" d="m200 210.14l-86.46-49.83c8.79-2.08 15.44-5.71 19.94-10.9l87.2 50.04c-10.06 6.25-16.95 9.82-20.68 10.69z" />
					<path id="&lt;Path&gt;" class="s3" d="m105.68 160.52l4.12-2.37l84.49 48.72c2.78 1.59 7.28 1.6 10.06 0l13.64-7.74c2.78-1.59 2.78-4.17 0-5.77l-84.52-48.81l3.64-2.08l85.93 49.32c4.63 2.66 4.63 6.96 0 9.62l-14.68 8.43c-4.63 2.66-12.13 2.66-16.76 0l-85.94-49.32z" />
					<path id="&lt;Path&gt;" class="s5" d="m191.62 209.85c4.62 2.65 12.13 2.65 16.76 0l14.69-8.44c2.3-1.33 3.46-3.06 3.46-4.81v171.4c0 1.75-1.16 3.48-3.46 4.81l-14.69 8.42c-4.62 2.65-12.13 2.65-16.76 0l-85.93-49.31v-171.4l85.93 49.33z" />
					<path id="&lt;Path&gt;" class="s2" d="m200 211.84c3.03 0 6.07-0.66 8.38-1.99l14.69-8.44c2.3-1.33 3.46-3.06 3.46-4.81v171.4c0 1.75-1.16 3.48-3.46 4.81l-14.69 8.42c-2.31 1.33-5.34 1.99-8.38 1.99v-171.38z" />
				</g>
			</g>
		</g>
	</g>
	<g id="Plants">
		<g id="Plants 5 ">
			<path id="&lt;Path&gt;" class="s6" d="m925.02 833.87c-2.04-35.95-17.97-107.93 3.01-174.34c10.66-33.76 35.15-69.52 71.61-79.6c12.9-3.57 28.85-3.09 35.19 11.61c1.07 2.47 1.66 5.13 1.85 7.82c0.79 11.17-4.28 21.05-9.93 30.18c-12.92 20.87-29.32 39.4-42.41 60.16c-6.94 11.01-12.88 22.56-18.03 34.47" />
			<path id="&lt;Path&gt;" class="s6" d="m924.16 838.81c2.56-33.02 11.98-65.78 28.53-94.55c12.4-21.56 27.9-40.59 50.46-52.88c11.07-6.03 24.56-10.34 34.57-11.08c10.46-0.77 21.52 1.28 29.74 7.8c8.22 6.52 12.86 18.07 9.36 27.97c-2.34 6.63-7.77 11.63-13.22 16.06c-18.49 15.05-39.42 26.83-58.33 41.34c-17.43 13.37-33.05 29.08-46.4 46.52c-6.78 8.85-12.98 18.15-18.54 27.82c-2.7 4.69-5.24 9.46-7.63 14.31c-1.18 2.39-2.56 4.83-3.47 7.34c-0.43 1.18-1.12 5.81-1.79 6.45c-0.92 0.88-2.59 0.2-3.13-0.96c-0.53-1.16-0.28-2.51 0.01-3.75c0.95-4.11-0.18-9.52-0.18-13.83c0-6.19 0-12.37 0-18.56z" />
			<path id="&lt;Path&gt;" class="s7" d="m1052.94 698.26c-42.69 12.23-105.97 61.25-128.78 152.26" />
			<path id="&lt;Path&gt;" class="s7" d="m1009.04 599.37c-23.05 18.34-78.08 76.44-85.02 170.36" />
		</g>
	</g>
	<g id="Bookshelf">
		<g id="Bookshelf 2 ">
			<g id="&lt;Group&gt;">
				<path id="&lt;Path&gt;" class="s8" d="m928.51 421.48v456.49c0 4.08-1.43 6.94-3.73 8.29c-2.17 1.26-9.92 5.72-12.07 6.97c-2.32 1.34-5.53 1.15-9.07-0.9l-166.81-96.17c-7.08-4.09-12.82-14.03-12.82-22.21l0-456.49c0-4.11 1.45-6.99 3.79-8.32c2.16-1.23 9.86-5.69 12.01-6.93c2.32-1.34 5.53-1.15 9.07 0.9l166.81 96.17c7.08 4.09 12.82 14.03 12.82 22.21z" />
				<g id="&lt;Group&gt;">
					<path id="&lt;Path&gt;" class="s8" d="m784.15 795.71l-10.82 31.23c-0.67 1.93-2.65 4.33-4.42 5.35l-5.62 3.24c-1.77 1.02-4.64 1.02-6.41 0l-5.62-3.24c-1.77-1.02-3.21-3.51-3.21-5.55l0-37.97l12.03-6.94l24.06 13.89z" />
					<path id="&lt;Path&gt;" class="s9" d="m748.06 788.76l24.06 13.89l-10.82 31.23c-0.67 1.93-2.65 2.67-4.42 1.65l-5.62-3.24c-1.77-1.02-3.21-3.51-3.21-5.55l0-37.97z" />
				</g>
				<g id="&lt;Group&gt;">
					<path id="&lt;Path&gt;" class="s8" d="m904.43 865l-10.82 31.23c-0.67 1.93-2.65 4.33-4.42 5.35l-5.62 3.24c-1.77 1.02-4.64 1.02-6.41 0l-5.62-3.24c-1.77-1.02-3.21-3.51-3.21-5.55l0-37.97l12.03-6.94l24.06 13.89z" />
					<path id="&lt;Path&gt;" class="s9" d="m868.35 858.06l24.06 13.89l-10.82 31.23c-0.67 1.93-2.65 2.67-4.42 1.65l-5.62-3.24c-1.77-1.02-3.21-3.51-3.21-5.55l0-37.97z" />
				</g>
				<path id="&lt;Path&gt;" class="s9" d="m737.68 310.28l166.81 96.17c7.08 4.09 12.82 14.03 12.82 22.21v456.49c0 4.09-1.44 6.96-3.76 8.3c-2.32 1.34-5.53 1.15-9.07-0.9l-166.81-96.17c-7.08-4.09-12.82-14.03-12.82-22.21l0-456.49c0-4.11 1.45-6.99 3.79-8.32c2.32-1.32 5.51-1.11 9.03 0.92z" />
			</g>
			<g id="Bottom 1 ">
				<path id="&lt;Path&gt;" class="s10" d="m495.46 920.55l240.57-138.89l180.43 104.17l12.03 6.94l-252.59 145.84l-180.43-104.17l0-13.89z" />
				<path id="&lt;Path&gt;" class="s8" d="m675.89 1038.61v-13.89l252.59-145.84v13.89l-252.59 145.84z" />
			</g>
			<g id="&lt;Group&gt;">
				<path id="&lt;Path&gt;" class="s11" d="m676.11 1017.77c33.74-51.05 31.87-141.31 28.97-156.54c9.49 63.61 20.08 104.49 31.76 122.66" />
				<path id="&lt;Path&gt;" class="s11" d="m711.08 895.9c3.86 18.54 27.73 34.36 71.61 47.45" />
				<path id="&lt;Path&gt;" class="s11" d="m726.02 916.08c-5.08-2.55-7.97 0.67-8.67 9.68c-1.74-7.34-10.89-6.71-12.75-2.2" />
				<path id="&lt;Path&gt;" class="s11" d="m744.54 927.77c-13.58-6.17-20.65 1.01-21.2 21.54c-5.48-17.21-17.97-13.22-21.35-5.96" />
				<path id="&lt;Path&gt;" class="s11" d="m767.85 938.18c-21.87-9.49-39.78 10.24-39.9 25.88c-5.04-12.67-24.62-7.19-31.76 6.56" />
				<path id="&lt;Path&gt;" class="s11" d="m684.09 1003.7c8.38-15.23 28.94-42.72 46.87-31.64" />
			</g>
			<g id="&lt;Group&gt;">
				<path id="&lt;Path&gt;" class="s8" d="m904.42 739.99l0.01 13.88l-228.55 131.95l-180.42-104.17l0-13.89l228.55-131.94l180.42 104.17z" />
				<path id="&lt;Path&gt;" class="s10" d="m904.42 739.99l-228.54 131.95l-180.43-104.17l228.55-131.94l180.42 104.17z" />
			</g>
			<g id="&lt;Group&gt;">
				<path id="&lt;Path&gt;" class="s8" d="m904.42 587.21l0.01 13.88l-228.55 131.95l-180.42-104.17l0-13.89l228.55-131.94l180.42 104.17z" />
				<path id="&lt;Path&gt;" class="s10" d="m904.42 587.21l-228.54 131.95l-180.43-104.17l228.55-131.94l180.42 104.17z" />
			</g>
			<g id="Side 1 ">
				<path id="&lt;Path&gt;" class="s8" d="m687.94 560.21v456.49c0 4.08-1.43 6.94-3.73 8.29c-2.17 1.26-9.92 5.72-12.07 6.97c-2.32 1.34-5.53 1.15-9.07-0.9l-166.81-96.17c-7.08-4.09-12.82-14.03-12.82-22.21l0-456.49c0-4.11 1.45-6.99 3.79-8.32c2.16-1.23 9.86-5.69 12.01-6.93c2.32-1.34 5.53-1.15 9.07 0.9l166.81 96.17c7.08 4.09 12.82 14.03 12.82 22.21z" />
				<path id="&lt;Path&gt;" class="s12" d="m675.85 566.38l12.09-6.96v41.69l-12.05 6.95l-0.04-41.68z" />
				<path id="&lt;Path&gt;" class="s12" d="m916.46 427.5l12.09-6.96v41.69l-12.05 6.95l-0.04-41.68z" />
				<g id="&lt;Group&gt;">
					<path id="&lt;Path&gt;" class="s8" d="m543.58 934.44l-10.82 31.23c-0.67 1.93-2.65 4.33-4.42 5.35l-5.62 3.24c-1.77 1.02-4.64 1.02-6.41 0l-5.62-3.24c-1.77-1.02-3.21-3.51-3.21-5.55l0-37.97l12.03-6.94l24.06 13.89z" />
					<path id="&lt;Path&gt;" class="s9" d="m507.49 927.49l24.06 13.89l-10.82 31.23c-0.67 1.93-2.65 2.67-4.42 1.65l-5.62-3.24c-1.77-1.02-3.21-3.51-3.21-5.55l0-37.97z" />
				</g>
				<g id="&lt;Group&gt;">
					<path id="&lt;Path&gt;" class="s8" d="m663.86 1003.73l-10.82 31.23c-0.67 1.93-2.65 4.33-4.42 5.35l-5.62 3.24c-1.77 1.02-4.64 1.02-6.41 0l-5.62-3.24c-1.77-1.02-3.21-3.51-3.21-5.55l0-37.97l12.03-6.94l24.06 13.89z" />
					<path id="&lt;Path&gt;" class="s9" d="m627.77 996.79l24.06 13.89l-10.82 31.23c-0.67 1.93-2.65 2.67-4.42 1.65l-5.62-3.24c-1.77-1.02-3.21-3.51-3.21-5.55l0-37.97z" />
				</g>
				<path id="&lt;Path&gt;" class="s9" d="m496.25 448.79l166.81 96.17c7.08 4.09 12.82 14.03 12.82 22.21v456.49c0 2.73 0 7.71 0 14.95c-6.19-3.67-10.46-6.18-12.83-7.54l-166.81-96.17c-7.08-4.09-12.82-14.03-12.82-22.21l0-456.49c0-4.11 1.45-6.99 3.79-8.32c2.32-1.32 5.51-1.11 9.03 0.92z" />
				<path id="&lt;Path&gt;" class="s12" d="m675.89 567.17v40.89l-192.45-111.11l0-40.75c0-4.11 1.45-6.99 3.79-8.32c2.32-1.32 5.51-1.11 9.03 0.92l166.81 96.17c7.08 4.09 12.82 14.03 12.82 22.21z" />
			</g>
			<g id="&lt;Group&gt;">
				<path id="&lt;Path&gt;" class="s13" d="m760.08 524.71l132.31-76.39l0 138.89" />
				<path id="&lt;Path&gt;" class="s13" d="m844.28 531.65l48.11-83.34l-24.06 104.17" />
				<path id="&lt;Path&gt;" class="s13" d="m892.4 448.32l-72.17 69.45" />
				<path id="&lt;Path&gt;" class="s13" d="m892.4 565.05c0.02-12.98-7.38-19.83-22.21-20.55c1.36-5.9-0.12-15.37-7.29-21.5c-7.17-6.13-12.02-2.76-13.47-0.26c1-11.93-3.65-18.48-13.97-19.63c6.84-12.62 6.84-19.92 0-21.92" />
				<path id="&lt;Path&gt;" class="s13" d="m892.4 535.12c-0.78-9.96-8.41-22.64-16.23-16.53c1.38-14.49-3.1-20.79-13.44-18.89c4.85-13.44 2.19-18.5-7.97-15.17c7.32-9.26 8.14-14.56 2.47-15.91" />
			</g>
			<g id="Top 1 ">
				<path id="&lt;Path&gt;" class="s9" d="m957.02 413.61c0.02 2.68-1.73 5.36-5.28 7.4l-275.06 158.81c-7.08 4.09-18.56 4.09-25.64 0l-178.84-103.25c-3.55-2.05-5.3-4.72-5.28-7.4c0.02-2.48 0.02-11.41 0-13.89c-0.02-2.68 1.73-5.36 5.28-7.4l275.06-158.81c7.08-4.09 18.56-4.09 25.64 0l178.84 103.25c3.55 2.05 5.3 4.72 5.28 7.4c-0.02 2.48-0.02 11.41 0 13.89z" />
				<path id="&lt;Path&gt;" class="s10" d="m651.04 565.93l-178.84-103.25c-7.08-4.09-7.08-10.72 0-14.81l275.06-158.81c7.08-4.09 18.56-4.09 25.64 0l178.84 103.25c7.08 4.09 7.08 10.72 0 14.81l-275.06 158.81c-7.08 4.09-18.56 4.09-25.64 0z" />
			</g>
			<g id="Shadows 1 ">
				<path id="&lt;Path&gt;" class="s14" d="m916.45 441.37l-84.19 104.17l-144.32 83.35l-0.02-55.57l228.54-131.95z" />
				<path id="&lt;Path&gt;" class="s14" d="m904.43 601.09l-72.17 97.23l-144.32 83.35l0-55.58l216.5-125z" />
				<path id="&lt;Path&gt;" class="s14" d="m904.43 753.88l-72.17 97.23l-144.32 83.35l0-55.59l216.5-124.99z" />
			</g>
		</g>
	</g>
	<g id="Box">
		<g id="Box 2 ">
			<g id="&lt;Group&gt;">
				<path id="&lt;Path&gt;" class="s15" d="m573.35 1057.33l-221.29 127.76l-249.19-144.19l221.29-127.76l249.19 144.19z" />
				<path id="&lt;Path&gt;" class="s16" d="m573.35 1057.33l-221.29 127.76l-249.19-144.19l221.29-127.76l249.19 144.19z" />
				<path id="&lt;Path&gt;" class="s15" d="m324.16 739.96l0 173.18l-221.29 127.76l0-173.18l221.29-127.76z" />
				<path id="&lt;Path&gt;" class="s12" d="m324.16 739.96l0 173.18l-221.29 127.76l0-173.18l221.29-127.76z" />
				<path id="&lt;Path&gt;" class="s15" d="m352.06 1011.89v173.19l-249.19-144.19l0-173.18l249.18 144.18z" />
				<path id="&lt;Path&gt;" class="s17" d="m352.06 1011.89v173.19l-249.19-144.19l0-173.18l249.18 144.18z" />
				<path id="&lt;Path&gt;" class="s15" d="m573.35 884.14v173.19l-249.19-144.19l0-173.18l249.18 144.18z" />
				<path id="&lt;Path&gt;" class="s17" d="m573.35 884.14v173.19l-249.19-144.19l0-173.18l249.18 144.18z" />
				<path id="&lt;Path&gt;" class="s15" d="m352.06 1185.09v-173.19l221.29-127.76v173.19l-221.29 127.76z" />
				<path id="&lt;Path&gt;" class="s12" d="m352.06 1185.09v-173.19l221.29-127.76v173.19l-221.29 127.76z" />
				<path id="&lt;Path&gt;" class="s15" d="m324.16 739.96l0.31-95.88l248.57 144.36l0.3 95.69l-249.18-144.18z" />
				<path id="&lt;Path&gt;" class="s12" d="m324.16 739.96l0.31-95.88l248.57 144.36l0.3 95.69l-249.18-144.18z" />
				<path id="&lt;Path&gt;" class="s15" d="m352.06 1011.89l20.75-83.87l219.28-126.6l-18.75 82.72l-221.29 127.76z" />
				<path id="&lt;Path&gt;" class="s18" d="m352.06 1011.89l20.75-83.87l219.28-126.6l-18.75 82.72l-221.29 127.76z" />
				<path id="&lt;Path&gt;" class="s15" d="m102.88 867.72l-26.4-86.99l221.28-127.76l26.4 87l-221.29 127.76z" />
				<path id="&lt;Path&gt;" class="s14" d="m102.88 867.72l-26.4-86.99l221.28-127.76l26.4 87l-221.29 127.76z" />
				<path id="&lt;Path&gt;" class="s15" d="m102.88 867.72l-52.07-71.9l249.21 144.17l52.04 71.9l-249.18-144.18z" />
				<path id="&lt;Path&gt;" class="s16" d="m102.88 867.72l-52.07-71.9l249.21 144.17l52.04 71.9l-249.18-144.18z" />
			</g>
			<g id="&lt;Group&gt;" style="opacity: .7">
				<g id="&lt;Group&gt;">
					<g id="&lt;Group&gt;">
						<path id="&lt;Path&gt;" class="s4" d="m417.21 1133.58c-0.75 0-1.36-0.61-1.36-1.36v-30.48c0-0.75 0.61-1.36 1.36-1.36c0.75 0 1.36 0.61 1.36 1.36v30.48c0 0.75-0.61 1.36-1.36 1.36z" />
					</g>
					<g id="&lt;Group&gt;">
						<path id="&lt;Path&gt;" class="s4" d="m413.23 1112.3c-0.18 0-0.36-0.04-0.54-0.11c-0.69-0.3-1.01-1.1-0.71-1.79l4.84-11.18l5.4 6.24c0.49 0.57 0.43 1.43-0.14 1.92c-0.57 0.48-1.43 0.43-1.92-0.14l-2.57-2.96l-3.12 7.21c-0.22 0.51-0.72 0.82-1.25 0.82z" />
					</g>
				</g>
				<g id="&lt;Group&gt;">
					<g id="&lt;Group&gt;">
						<path id="&lt;Path&gt;" class="s4" d="m429.79 1126.4c-0.75 0-1.36-0.61-1.36-1.36v-30.47c0-0.75 0.61-1.36 1.36-1.36c0.75 0 1.36 0.61 1.36 1.36v30.47c0 0.75-0.61 1.36-1.36 1.36z" />
					</g>
					<g id="&lt;Group&gt;">
						<path id="&lt;Path&gt;" class="s4" d="m425.81 1105.13c-0.18 0-0.36-0.04-0.54-0.11c-0.69-0.3-1.01-1.1-0.71-1.79l4.84-11.17l5.4 6.23c0.49 0.57 0.43 1.43-0.14 1.92c-0.57 0.49-1.42 0.43-1.92-0.13l-2.57-2.96l-3.12 7.21c-0.22 0.51-0.72 0.82-1.25 0.82z" />
					</g>
				</g>
			</g>
			<g id="&lt;Group&gt;" style="opacity: .7">
				<g id="&lt;Group&gt;">
					<path id="&lt;Path&gt;" class="s4" d="m380.95 1154.26c-0.53 0-1.04-0.13-1.48-0.38c-1.04-0.59-1.63-1.78-1.63-3.27v-3.73c0-0.75 0.61-1.36 1.36-1.36c0.75 0 1.36 0.61 1.36 1.36v3.73c0 0.56 0.15 0.84 0.26 0.9c0.1 0.07 0.42 0.04 0.89-0.23c1.2-0.7 2.53-3.39 2.53-6.15v-15.6c0-0.75 0.61-1.36 1.36-1.36c0.75 0 1.36 0.61 1.36 1.36v15.6c0 3.55-1.66 7.2-3.87 8.49c-0.72 0.42-1.45 0.63-2.13 0.63z" />
				</g>
				<g id="&lt;Group&gt;">
					<path id="&lt;Compound Path&gt;" fill-rule="evenodd" class="s4" d="m366.63 1141.69v-2.35c0-11.08 7.8-24.6 17.39-30.13c4.91-2.83 9.59-3.25 13.18-1.17c3.6 2.08 5.58 6.34 5.58 12v0.79l-36.15 20.87zm25.53-32.24c-2.05 0-4.36 0.71-6.78 2.11c-8.15 4.7-14.9 15.66-15.9 25.35l30.56-17.65c-0.16-4.25-1.64-7.39-4.2-8.87c-1.08-0.62-2.32-0.94-3.68-0.94z" />
				</g>
			</g>
			<path id="&lt;Path&gt;" class="s19" d="m50.81 795.82l249.21 144.17l52.04 71.9l-54.81-69.36l-246.44-146.71z" />
			<path id="&lt;Path&gt;" class="s19" d="m356.19 1015.37l-4.13 169.71v-173.19l221.29-127.76l-217.16 131.24z" />
		</g>
	</g>
	<g id="Moth">
		<g id="Moth 2 ">
			<g id="&lt;Group&gt;">
				<path id="&lt;Path&gt;" class="s1" d="m248.34 813.58c4.6-1.52 9.21-3.13 13.65-5.06c18.54-8.06 34.47-21.26 44.67-38.83c4.76-8.2 8.23-17.19 9.93-26.52c1.54-8.44 2.12-17.58-0.76-25.8c-4.92-14.04-19.27-21.42-33.4-22.49c-7.39-0.56-15.01 0.49-21.88 3.31c-7.33 3-13.12 8.12-17.45 14.73c-1.91 2.91-4.84 7.55-3.83 11.26c1.03 3.76 6.43 2.41 9.01 1.49c10.44-3.7 17.41-12.44 22.96-21.6c4.98-8.22 9.57-17.44 10.88-27.07c1.29-9.46 0.13-19.41-2.63-28.51c-2.67-8.8-7.08-17.51-14.58-23.13c-7.98-5.98-18.2-8.51-28.03-9.03c-9.54-0.5-19.68 0.77-28.46 4.67c-3.54 1.57-7.26 3.39-9.68 6.41c-0.97 1.2-2.46 3.48-1.79 5.45c0.57 1.66 2.46 2.37 3.95 2.48c5.09 0.37 10.45-3.37 14.03-6.62c4.29-3.89 7.89-8.92 10.87-13.87c4.35-7.23 4.82-15.78 0.7-23.21c-4.1-7.38-11.18-12.88-18.63-16.6c-7.68-3.83-16.59-6.43-25.24-5.78c-1.24 0.09-2.17-2.3-0.64-2.42c4.55-0.34 9.06-0.05 13.54 0.89c16.48 3.47 37.5 15.77 37.89 34.81c0.09 4.57-1.23 9.01-3.39 13.01c-2.93 5.42-6.89 10.66-11.3 14.96c-4 3.9-9.38 7.41-15.03 8.14c-3.87 0.5-9.44-0.8-10.61-5.13c-1.05-3.88 1.89-7.85 4.47-10.26c3.42-3.2 7.97-5.24 12.38-6.76c10.24-3.54 21.52-4.51 32.24-3.11c10.57 1.38 21.53 5.19 29.2 12.89c7.33 7.36 11.48 17.59 13.61 27.6c2.08 9.8 2.67 20.43-0.06 30.17c-3.16 11.27-9.36 22.4-16.63 31.51c-3.56 4.46-7.83 8.12-12.8 10.91c-4.03 2.27-9.01 4.28-13.73 3.48c-3.91-0.66-6.82-3.58-6.71-7.65c0.12-4.68 2.89-9.26 5.54-12.94c5.09-7.09 11.83-12.29 20.09-15.14c7.75-2.68 16.16-3.43 24.29-2.39c16.12 2.06 31.35 11.81 35.48 28.26c2.41 9.59 1.04 20.2-1.39 29.64c-2.66 10.29-7.34 19.97-13.5 28.62c-13.23 18.57-34.09 33.19-56.92 36.5c-0.54 0.08-0.75-1.12-0.27-1.28z" />
			</g>
			<g id="&lt;Group&gt;">
				<path id="&lt;Path&gt;" class="s15" d="m159.39 530.11c9.86-3.01 12.35 3.45 7.47 19.4c10.23-0.9 17.91 4.13 10.67 9.47c-4.83 3.56-9.8 4.21-14.91 1.94c4.97 8.51-1.78 21.8-6.89 20.22c-3.41-1.05-4.62-6.23-3.64-15.53c-10.41 7.45-17.58 8.87-21.5 4.27c-5.88-6.9 10.49-16.34 22.65-15.49c-3.78-13.37-1.16-22.05 6.15-24.29z" />
				<path id="&lt;Path&gt;" class="s19" d="m159.39 530.11c9.86-3.01 12.35 3.45 7.47 19.4c10.23-0.9 17.91 4.13 10.67 9.47c-4.83 3.56-9.8 4.21-14.91 1.94c4.97 8.51-1.78 21.8-6.89 20.22c-3.41-1.05-4.62-6.23-3.64-15.53c-10.41 7.45-17.58 8.87-21.5 4.27c-5.88-6.9 10.49-16.34 22.65-15.49c-3.78-13.37-1.16-22.05 6.15-24.29z" />
				<path id="&lt;Path&gt;" class="s10" d="m166.26 564.44c-0.13 0.13-0.36 0.16-0.53 0.1c-1.91-0.68-3.53-1.89-5.12-3.11c-1.01-0.77-2.07-1.47-3.09-2.23c-1.03-0.75-2.03-1.51-3.13-2.15c-0.53-0.31-1.07-0.61-1.62-0.89c-1.05-0.54-2.21-0.77-3.15-1.97c-0.79-1 0.15-2.21 1.21-2.34c1.14-0.15 2.04 0.02 3.07 0.48c0.67 0.29 1.33 0.62 1.98 0.97c1.11 0.61 2.19 1.26 3.21 2.01c1.07 0.79 2.17 1.55 3.22 2.36c0.73 0.56 1.45 1.17 2.1 1.82c0.88 0.89 3.12 3.73 1.85 4.95z" />
			</g>
		</g>
	</g>
	<g id="Character">
		<g id="Character 7 ">
			<path id="&lt;Path&gt;" class="s20" d="m1175.5 206.94c-15.3 99.55-26.22 158.8-32.76 177.76c-7.89 22.87-10.33 45.48-33.22 43.15c-33.06-3.37-107.42-10.72-121.48-10.72c-6.56 0-13.27-1.25-19.78 0.85c-4.36 1.41-8.32 3.81-12.35 5.98c-10.38 5.61-21.51 9.84-33 12.56c-1.27 0.3-2.7 0.56-3.79-0.15c-1.24-0.8-1.52-2.52-1.25-3.97c0.71-3.91 4.18-6.64 7.51-8.79c2.16-1.4 10.7-6.31 7.82-9.42c-1.92-2.07-7.03-0.91-9.48-0.86c-5.75 0.12-11.55 0.74-17.16 2.02c-25.06 5.72-31.63 1.53-32.87-7.67c-1.09-8.02-2.95-38.66 43.88-44.79c18.86-2.47 57.38 1.21 75.28 3.1c16.16 1.7 58.81 3.19 90.71 4.11c6.63-31.09 24.17-128.09 37.29-145.72c15.59-20.94 31.5-20.75 54.65-17.44z" />
			<path id="&lt;Path&gt;" class="s9" d="m1159.34 350.72c-36.51 4.74-60.59-1.25-72.24-17.99c6.99-27.45 12.48-48.81 16.46-64.08c5.97-22.91 9.17-38.84 22.75-53.98c13.58-15.15 38.46-12.04 49.54-10.01l-16.51 146.06z" />
			<g id="&lt;Group&gt;">
				<path id="&lt;Path&gt;" class="s20" d="m1313.34 997.92l-38.5 0.04l-11.05-83.58l48.57-1.9l0.98 85.44z" />
				<path id="&lt;Path&gt;" class="s20" d="m1185.56 956.2c-6.57 11.34-27.58 10.42-45.11 6.4l-2.02-82.15l51.48-2.02l-4.35 77.76z" />
				<path id="&lt;Path&gt;" class="s15" d="m1310.73 469.99c0.93 23.69-0.17 105.61-3.3 245.76c1.27 10.19 11.82 27.99 14.03 64.79c2.14 35.58-0.43 91.43-7.7 167.54c-14.7 7.68-29.96 8.58-45.8 2.7c-16.13-110.07-27.11-182.65-32.94-217.72c-5.09-30.61-10.89-86.95-17.42-169.03l-18.99 157.81c3.54 16.64 4.98 35.52 4.3 56.67c-0.52 16.35-5.44 64.24-14.76 143.68c-15.64 5.86-32.06 6.26-49.25 1.19c-7.65-123.28-11.91-192.4-12.79-207.35c-1-17.04-1.15-100.77-0.47-251.18l185.07 5.13z" />
				<path id="&lt;Path&gt;" class="s12" d="m1200.48 706.36l1.74-137.73c-20.28-10.84-34-22.37-41.15-34.59c15.28 13.65 34.12 23.64 56.54 30l-17.13 142.33z" />
				<g id="&lt;Group&gt;">
					<path id="&lt;Path&gt;" class="s8" d="m1322.04 1002c2.12 6.83 2.31 12.69 0.59 17.59c-1.19 3.38-6.97 10.54-10.54 16.82c-3.86 6.81-2.57 15.1-3.07 23.77c-0.5 8.67-4.56 15.07-13.24 21.07c-8.68 6-22.14 8.58-37.34 8.09c-15.91-0.51-24.98-7.65-26.6-9.99c-1.51-2.18-2.23-10.47-0.98-11.74l91.18-65.62z" />
					<path id="&lt;Path&gt;" class="s10" d="m1269.17 980.62c0.14-1.91 0.26-2.93 1.11-4.11c0.8-1.12 2.11-1.83 3.46-2.19c4.41-1.17 9.59-0.83 14.1-0.45c4.94 0.41 9.83 1.32 14.57 2.72c1.41 0.42 2.86 0.93 3.73 1.81c0.65 0.65 0.96 2.44 0.8 3.34c-0.52 2.99-0.55 4.63-1.88 8.54c3.05-2.61 3.01-6.85 5.88-9.78c2.27-2.32 2.13-2.63 2.14-5.94c2.21-0.68 4.4 6.41 6.36 12.67c2.27 7.25 5.08 15.44 2.27 22.92c-1.57 4.17-4.22 7.84-6.65 11.6c-4.19 6.48-7.84 13.55-8.43 21.17c-0.26 3.34 0.08 6.71-0.34 10.03c-1.46 11.57-9.43 20.82-20.82 24.55c-10.24 3.35-21.54 4.36-32.23 2.89c-10-1.38-23.07-4.91-22.89-16.83c0.11-7.04 3.98-13.55 8.63-18.98c4.65-5.42 10.17-10.13 14.54-15.76c2.24-2.89 4.16-6 5.97-9.17c3.51-6.14 6.61-12.58 8.54-19.36c0.92-3.24 1.4-6.32 1.37-9.68c-0.02-3.16-0.36-8.06-0.23-9.97z" />
					<path id="&lt;Path&gt;" class="s0" d="m1262.46 1014.15c2.55-1.63 8.29-2.3 17.21-2.02c8.07 0.25 14.2 3.44 17.6 5.75c1.71 1.16 1.94 3.54 0.53 5.04c-1.17 1.25-3.1 1.5-4.53 0.54c-3.21-2.18-8.81-4.35-15.63-4.81c-5.45-0.37-15.37 0.07-19.67 3.56c-0.98-2.59 0.51-5.28 4.47-8.05z" />
					<path id="&lt;Path&gt;" class="s0" d="m1254.55 1027.42c2.25-1.91 7.83-2.72 16.76-2.45c8.07 0.25 14.59 3.94 18 6.25c1.71 1.16 1.94 3.54 0.53 5.04c-1.17 1.25-3.1 1.5-4.53 0.54c-3.22-2.18-8.4-4.65-15.22-5.12c-5.45-0.37-16.38-0.41-21.82 3.09c0.49-3.3 2.58-5.75 6.27-7.36z" />
					<path id="&lt;Path&gt;" class="s0" d="m1301.78 1004.47c1.35 0.75 1.9 2.37 1.31 3.77c-0.7 1.65-2.71 2.36-4.34 1.54c-1.21-0.61-2.59-1.27-3.75-1.73c-4.57-1.81-10.19-3.38-14.59-3.4c-6.57-0.03-11.89 0.86-14.8 2.63c-1.55-0.88-0.15-4.66 2.15-6.07c3.59-1.47 7.47-2.66 16.73-2.07c7.48 0.48 13.99 3.51 17.29 5.33z" />
				</g>
				<g id="&lt;Group&gt;">
					<path id="&lt;Path&gt;" class="s8" d="m1195.08 987.48c1.56 5.94 1.46 10.57-0.3 13.89c-2.63 4.98-17.2 9.74-28.13 9.85c-10.93 0.11-19.72 0.73-28.37 5.89c-8.66 5.16-24.19 13.31-46.28 13.75c-22.08 0.44-37.96-9.54-39.31-12.73c-1.34-3.19-1.47-8.14-0.09-10.71l142.48-19.94z" />
					<path id="&lt;Path&gt;" class="s10" d="m1157.51 948.77c0.55 0.43 1.11 0.92 1.29 1.6c0.18 0.67-0.05 1.36-0.25 2.02c-0.25 0.8-2.77 9.1-2.56 9.15c4.58 1.18 9.57 2.33 13.89 0.4c2.51-1.12 4.46-3.16 6.35-5.16c1.44-1.52 2.89-3.05 4.33-4.57c1.18-1.25 5.01-2.83 5.46-4.46l0.3-5.43c4.84-0.19 3.69 16.07 6.22 26.93c2.31 9.95 5.16 21.48 2.45 24.95c-7.24 7.76-27.53 9.8-38.22 10.13c-16.81 0.51-31.63 13.48-44.56 16.49c-23.74 5.52-45.82-0.94-54.08-6.32c-9.57-6.24-7.76-20.82 1.16-26.23c6.12-3.71 16.27-5.32 24-8.36c7.58-2.99 14.77-5.65 22.15-9.17c10.85-5.19 20.83-10.96 25.8-18.26c1.97-2.89 3.55-6.1 6.04-8.56c0.79-0.78 1.71-1.5 2.8-1.7c0.96-0.18 1.95 0.06 2.9 0.29c0.58 0.14 1.16 0.29 1.72 0.44c4.66 1.24 8.84 2.76 12.81 5.83z" />
					<path id="&lt;Path&gt;" class="s0" d="m1115.65 965.41c1.15-2.68 3.86-4.31 8.12-4.89c4.89-0.67 13.28 3.31 18.4 7.94c2.09 1.9 1.65 5.29-0.89 6.54c-1.51 0.74-3.3 0.44-4.51-0.72c-3.34-3.2-10.91-9.09-21.11-8.87z" />
					<path id="&lt;Path&gt;" class="s0" d="m1100.23 973.11c2.24-3.16 5.43-4.62 9.55-4.36c8.43 0.64 15.14 3.52 20.13 8.64c1.91 1.96 1.62 5.12-0.84 6.32v0c-1.46 0.71-3.19 0.42-4.35-0.71c-3.38-3.32-10.14-10.28-24.49-9.89z" />
					<path id="&lt;Path&gt;" class="s0" d="m1083.28 979.9c2.47-2.84 5.76-4.14 9.89-3.88c7.85 0.67 14.27 3.56 19.26 8.68c1.91 1.96 1.62 5.12-0.84 6.32c-1.46 0.71-3.19 0.42-4.35-0.71c-3.38-3.32-9.61-10.8-23.96-10.41z" />
				</g>
			</g>
			<g id="&lt;Group&gt;">
				<path id="&lt;Path&gt;" class="s10" d="m1240.02 205.32c14.17 1.61 30.92 2.49 44.44 4.26c17.43 2.29 31.03 20.32 35.28 48.2c3.12 20.49-1.85 60.1-14.9 118.81l6.27 103.85c-25.55 18.82-134.25 28.69-188.45-10.43c0.84-117.84 2.68-185.81 5.5-203.89c5.83-37.33 14.93-60.53 57.04-63.2l54.81 2.41z" />
			</g>
			<g id="&lt;Group&gt;">
				<path id="&lt;Path&gt;" class="s20" d="m1360.26 388.2l-64.71-90.26c-18.67-23.14-22.37-52.59-11.1-88.36c44.44 4.26 52.79 35.34 70.21 60.85c17.42 25.51 68.81 98.17 68.45 107.65c-0.36 9.47-2.51 18.8-19.07 41.55c-19.41 30.41-34.87 52.43-46.36 66.05c-11.95 14.16-38.22 43.44-55.47 52.71c-42.83 23.02-59.69-3.72-63.59-11.07c-4.49-8.44-1.51-15.89 22.87-26.17c5.46-2.3 10.68-5.26 15.56-8.62c2.44-1.68 10.56-5.82 6.31-9.28c-1.29-1.05-3.03-1.28-4.68-1.48c-3.9-0.47-7.8-0.93-11.71-1.4c-2.55-0.31-5.22-0.66-7.3-2.16c-2.08-1.5-3.29-4.55-1.91-6.71c1.21-1.9 3.74-2.34 5.97-2.59c13.47-1.52 27.01-2.51 40.56-2.96c2.75-0.09 7.49 0.9 9.77-0.67c0.94-0.65 2.8-2.63 3.45-3.62c1.84-2.75 3.6-5.56 5.36-8.37c4.74-7.59 9.35-15.26 13.95-22.94c4.2-7.03 12.02-21.07 23.45-42.13z" />
				<path id="&lt;Path&gt;" class="s9" d="m1361.51 336.39c-12.44 9.13-23.86 13.85-34.23 14.17l-25.46-34.48c-14.14-11.77-23.11-26.01-26.91-42.72c-6.78-29.83-4.1-59.5 0.4-66.42c50.81 0.73 47.86 10.15 83.09 61.58c8.38 12.24 17.05 24.59 25.35 36.59c-2.38 11.72-9.79 22.14-22.24 31.27z" />
			</g>
			<g id="&lt;Group&gt;">
				<g id="&lt;Group&gt;">
					<path id="&lt;Path&gt;" class="s8" d="m1270.18 120.52l0.05-0.05c-7.3 24.57-12.26 39.39-14.89 44.47c-2.89 5.59-6.72 8.5-11.5 8.74l-0.75-26.47l4.25-23.79l2.62-64.41c9.3-1.54 17.15 2.16 23.55 11.1c4.62 6.46 6.74 20.16-3.32 50.4z" />
					<path id="&lt;Path&gt;" class="s20" d="m1244.31 123.72c1.26-4.03 2.5-6.31 6.21-10.27c3.69-3.94 18.4-8.25 25.1 4.24c6.83 12.73-4.59 28.96-13.29 34c-7.43 4.31-13.33 3.53-17.68-2.34l0.26 59.3c-5.18 11.93-28.62 22.69-42.54 20.92c-11.11-1.41-21.35-10.16-11.42-22.88l-0.8-16.9c-9.9 2.01-17.29 2.76-22.19 2.25c-12.23-1.27-20.34-10.47-24.68-23.43c-6.96-20.81-10.05-37.74-7.09-79.49c3.24-45.77 56.13-48.86 85.6-32.3c19.64 11.04 27.15 33.35 22.53 66.91z" />
					<path id="&lt;Path&gt;" class="s8" d="m1119.33 41.67c-1.34-9.99 2.12-20.7 12.57-24.24c7.89-2.68 15.98-2.52 23.23 3.87c2.59-7.04 9.4-12.34 16.86-13.12c7.46-0.78 15.22 2.98 19.22 9.33c3.16-4.45 6.88-7.13 12.06-8.38c6.05-1.47 13.53 0.07 17.82 3.23c4.29 3.16 9.28 9.14 8.02 16.59c8.44-3.38 17.22-0.58 23.48 6.89c3.75 4.47 5.8 10.27 5.97 16.09c0.08 2.83-0.09 6.29-1.27 8.92c-1.22 2.74-3.68 4.53-4.39 7.63c-0.66 2.9-2.01 5.59-1.61 8.52c0.69 5.05 1.8 10.06 2.46 15.13c0.64 4.89 1.21 9.83 1.24 14.76c0.01 2.36-1.67 4.03-3.64 5.78c-3.2 2.84-3.92 4.32-6.31 9.15c-1.06 2.15-2.07 7.49-4.16 8.95c-6.39 4.46-7.09-10.02-7.4-12.79c-0.31-2.77-0.39-10.02 0.13-19.23c-2.05-0.13-10.49-0.27-17.01-7.82c-2.13-2.47-3.79-6.22-4.22-9.41c-0.28-2.05-0.59-3.83-0.5-5.88c-4.15 6.89-13.86 9.72-20.75 9.1c-11.59-1.04-15.56-5.99-17.43-9.64c-0.85 3.24-2.26 7.38-4.6 9.78c-2.96 3.03-6.91 4.86-10.38 6.05c-6.47 2.2-14.18-0.57-18.95-5.46c-4.71 6.76-16.64 3.74-19.29 1.84c-6.06-4.35-7.94-9.52-8.6-16.95c-0.66-7.43 2.33-15.85 10.54-18.77c-1.56-2.98-2.62-6.4-3.09-9.91z" />
					<path id="&lt;Path&gt;" class="s21" d="m1190.14 189.79c17.88-4.54 29.9-8.64 36.05-12.31c6.17-3.68 11.11-9.79 12.45-13.61c-0.92 5.42-3.15 10.64-6.68 15.65c-4.33 6.13-18.15 11.96-41.46 17.47l-0.36-7.21z" />
				</g>
				<g id="&lt;Group&gt;">
					<path id="&lt;Path&gt;" class="s8" d="m1197.15 115.4c3.21-0.17 5.94 2.4 6.11 5.73c0.17 3.34-2.3 6.18-5.51 6.34c-3.21 0.17-5.95-2.4-6.11-5.73c-0.17-3.33 2.3-6.17 5.51-6.34z" />
					<path id="&lt;Path&gt;" class="s21" d="m1189.76 156.97c4.13-0.22 7.65 3.09 7.87 7.38c0.21 4.3-2.96 7.95-7.1 8.17c-4.13 0.22-7.66-3.09-7.87-7.38c-0.21-4.29 2.97-7.95 7.1-8.17z" />
					<path id="&lt;Path&gt;" class="s8" d="m1205.55 98.37c3.41 1.67 4.88 5.89 3.28 9.44l-12.36-6.04c1.6-3.54 5.67-5.06 9.08-3.4z" />
					<path id="&lt;Path&gt;" class="s8" d="m1143.65 96.96c2.91-2.48 7.21-2.04 9.61 0.99l-10.55 8.99c-2.39-3.03-1.97-7.5 0.94-9.98z" />
					<path id="&lt;Path&gt;" class="s8" d="m1151.19 114.44c3.1-0.16 5.75 2.32 5.91 5.55c0.16 3.23-2.23 5.97-5.33 6.14c-3.11 0.16-5.75-2.32-5.91-5.55c-0.16-3.23 2.23-5.97 5.33-6.14z" />
					<path id="&lt;Path&gt;" class="s21" d="m1173.7 113.9l-0.18 35.5l-18.8-5.38l18.98-30.12z" />
				</g>
			</g>
			<g id="&lt;Group&gt;">
				<g id="&lt;Group&gt;">
					<path id="&lt;Path&gt;" class="s1" d="m1125.49 163.36l-16.3-10.86c-0.64-0.43-0.81-1.29-0.38-1.93c0.43-0.64 1.29-0.81 1.93-0.39l16.31 10.86c0.64 0.43 0.81 1.29 0.38 1.93c-0.21 0.31-0.52 0.51-0.86 0.59c-0.36 0.08-0.75 0.02-1.08-0.2z" />
				</g>
				<g id="&lt;Group&gt;">
					<path id="&lt;Path&gt;" class="s1" d="m1124.2 170.57l-19.08-4.43c-0.75-0.18-1.22-0.92-1.04-1.67c0.17-0.75 0.93-1.22 1.67-1.04l19.08 4.43c0.75 0.17 1.22 0.92 1.04 1.67c-0.13 0.54-0.55 0.93-1.06 1.05c-0.2 0.04-0.41 0.05-0.62 0z" />
				</g>
				<g id="&lt;Group&gt;">
					<path id="&lt;Path&gt;" class="s1" d="m1105.5 182.39c-0.26-0.72 0.11-1.52 0.83-1.79l18.4-6.73c0.67-0.25 1.52 0.11 1.79 0.83c0.26 0.72-0.11 1.52-0.83 1.79l-18.4 6.73c-0.06 0.02-0.12 0.04-0.18 0.05c-0.67 0.15-1.36-0.22-1.61-0.88z" />
				</g>
			</g>
			<g id="&lt;Group&gt;">
				<g id="&lt;Group&gt;">
					<path id="&lt;Path&gt;" class="s1" d="m951.31 323.77l13.7-33.75c0.81-2.25 3.31-3.42 5.56-2.61c2.25 0.81 3.43 3.3 2.62 5.56l-13.7 33.75c-0.81 2.25-3.31 3.42-5.56 2.61c-1.09-0.39-1.93-1.18-2.42-2.15c-0.51-1.03-0.61-2.24-0.2-3.4z" />
				</g>
				<g id="&lt;Group&gt;">
					<path id="&lt;Path&gt;" class="s1" d="m928.54 325.25l-0.43-42.1c-0.03-2.4 1.88-4.37 4.28-4.4c2.4-0.04 4.38 1.9 4.41 4.28l0.43 42.1c0.03 2.4-1.88 4.37-4.28 4.4c-1.73 0.03-3.23-0.96-3.95-2.41c-0.28-0.56-0.44-1.2-0.45-1.87z" />
				</g>
				<g id="&lt;Group&gt;">
					<path id="&lt;Path&gt;" class="s1" d="m892.25 298.11c1.99-1.34 4.69-0.81 6.03 1.18l20.67 30.01c1.26 1.82 0.82 4.68-1.17 6.03c-1.99 1.34-4.69 0.81-6.03-1.18l-20.67-30.01c-0.11-0.16-0.2-0.32-0.29-0.5c-0.95-1.91-0.36-4.29 1.46-5.53z" />
				</g>
			</g>
		</g>
	</g>
</svg> 