<svg width="410" height="305" viewBox="0 0 410 305" fill="none" xmlns="http://www.w3.org/2000/svg">
<path d="M29.9111 277.108C22.061 249.793 16.3264 221.561 17.0644 193.14C17.8024 164.719 25.3765 135.942 42.1182 113.006C58.8598 90.071 85.4196 73.6361 113.737 72.6898C144.864 71.6503 173.438 88.4363 203.368 97.0706C230.74 104.967 260.517 105.955 287.514 96.8484C305.584 90.7539 323.392 80.1146 342.277 82.7203C356.963 84.7472 369.686 94.8928 377.567 107.493C385.447 120.094 389.006 134.952 390.834 149.713C396.284 193.719 386.947 239.422 364.739 277.756H123.623L29.9084 277.106L29.9111 277.108Z" fill="#DAF7F7"/>
<path d="M53.7565 92.3886C51.7257 94.2318 49.17 97.8852 46.6034 98.8809C44.0095 99.8875 41.7873 97.1721 40.5901 95.1068C39.166 92.6492 38.6303 89.75 38.6849 86.9085C38.7915 81.4531 41.0137 76.1704 44.3183 71.8368C47.6257 67.5032 51.9689 64.0609 56.6019 61.2057C69.0823 53.5148 84.4655 49.9053 98.6898 53.4134C101.494 54.1045 104.345 55.1304 106.349 57.2176C108.352 59.3022 109.251 62.695 107.756 65.1718C105.96 68.1505 101.912 68.5262 98.4656 68.9184C88.1528 70.0896 78.3483 74.2998 69.6262 79.9445C63.9764 83.6007 58.7367 87.863 53.7538 92.3859L53.7565 92.3886Z" fill="#DAF7F7"/>
<path d="M310.808 298.741H309.356L332.347 277.717H333.798L310.808 298.741Z" fill="#F58249"/>
<path d="M237.754 299.929L239.052 298.741H310.808L309.509 299.929H237.754V299.929Z" fill="#F58249"/>
<path d="M332.349 277.717L314.022 294.476L309.356 298.741H239.052L249.718 288.99L262.037 277.717H332.346H332.349Z" fill="#F5AD49"/>
<g style="mix-blend-mode:screen" opacity="0.5">
<path d="M314.022 294.476L309.356 298.741H239.052L249.718 288.99C255.616 287.707 261.911 287.687 267.995 287.786C279.065 287.967 290.196 288.337 301.074 290.403C305.486 291.239 310.007 292.479 314.022 294.479V294.476Z" fill="#F5AD49"/>
</g>
<path d="M362.905 270.904H234.783V23.7417H362.905V270.904Z" fill="#A4D7E0"/>
<path d="M355.842 270.904H241.846V33.4841H355.842V270.904Z" fill="#1C484F"/>
<g style="mix-blend-mode:multiply" opacity="0.5">
<path d="M355.842 270.904H241.846V238.224H355.842V270.904Z" fill="#1F4F57"/>
</g>
<path d="M285.776 41.0982L355.869 33.4814V270.901L285.776 246.471V41.0954V41.0982Z" fill="#E6E6E6"/>
<path fill-rule="evenodd" clip-rule="evenodd" d="M289.999 70.2542V50.6651L350.245 45.4949V67.6019L349.93 67.6156L289.999 70.2569V70.2542ZM290.655 51.2685V69.5685L349.591 66.971V46.2107L290.655 51.2685V51.2685Z" fill="#80C8D4"/>
<path fill-rule="evenodd" clip-rule="evenodd" d="M350.245 260.076L349.815 259.933L289.999 240.157V187.122L350.245 200.085V260.076V260.076ZM290.655 239.683L349.591 259.168V200.617L290.655 187.937V239.683V239.683Z" fill="#80C8D4"/>
<path fill-rule="evenodd" clip-rule="evenodd" d="M350.245 178.782L320.085 173.584V78.6061L350.245 77.9203V178.782ZM320.741 173.03L349.591 178.003V78.5951L320.741 79.2506V173.033V173.03Z" fill="#80C8D4"/>
<path fill-rule="evenodd" clip-rule="evenodd" d="M316.507 172.967L289.999 168.397V79.289L316.507 78.6883V172.967V172.967ZM290.655 167.843L315.851 172.185V79.3575L290.655 79.928V167.84V167.843Z" fill="#80C8D4"/>
<path fill-rule="evenodd" clip-rule="evenodd" d="M328.733 188.56L308.332 184.484V176.697L328.733 180.466V188.562V188.56ZM308.988 183.946L328.077 187.759V181.011L308.988 177.484V183.943V183.946Z" fill="#80C8D4"/>
<path d="M13.8965 277.544H388.653" stroke="#1C484F" stroke-width="3"/>
<path style="mix-blend-mode:multiply" opacity="0.5" d="M99.3923 276.661L64.1542 297.775H10.5234L50.7472 274.903L99.395 276.661H99.3923Z" fill="url(#paint0_linear_319_707)"/>
<path d="M99.3924 226.885V230.955H38.8081L48.6344 227.631L50.832 226.885H99.3924Z" fill="#C7762F"/>
<path d="M91.4193 281.294H38.8081V230.955H91.4193V281.294Z" fill="#F5AD49"/>
<path d="M63.2935 276.45H41.1836V273.362H63.2935V276.45Z" fill="#C7762F"/>
<path d="M56.0174 272.026H41.1836V269.78H56.0174V272.026Z" fill="#C7762F"/>
<path d="M87.3604 238.221C87.3604 240.451 85.5591 242.258 83.3369 242.258C81.1147 242.258 79.3135 240.451 79.3135 238.221C79.3135 235.991 81.1147 234.184 83.3369 234.184C85.5591 234.184 87.3604 235.991 87.3604 238.221Z" fill="#C7762F"/>
<g style="mix-blend-mode:screen" opacity="0.5">
<path d="M38.8081 230.955H41.1834V281.294H38.8081V230.955Z" fill="#F5AD49"/>
</g>
<path d="M99.3926 226.885V276.661L91.4194 281.294V230.952L93.5514 229.869L99.3953 226.882L99.3926 226.885Z" fill="#E38C3B"/>
<g style="mix-blend-mode:multiply" opacity="0.5">
<path d="M99.3926 267.328V276.661L91.4194 281.294V230.952L93.5514 229.869C93.3464 237.524 93.6772 245.188 94.5464 252.796C94.9564 256.381 95.5058 260.01 96.9544 263.312C97.5831 264.747 98.3976 266.115 99.3926 267.328Z" fill="#E38C3B"/>
</g>
<g style="mix-blend-mode:multiply" opacity="0.5">
<path d="M99.3923 226.885V227.447C76.6127 230.385 57.3673 228.736 48.6343 227.628L50.8319 226.882H99.3923V226.885Z" fill="#C7762F"/>
</g>
<path d="M91.4193 190.935V193.933H46.7812L54.0219 191.483L55.64 190.935H91.4193Z" fill="#C7762F"/>
<path d="M85.5427 231.021H46.7812V193.933H85.5427V231.021Z" fill="#F5AD49"/>
<path d="M64.8211 227.453H48.5332V225.176H64.8211V227.453Z" fill="#C7762F"/>
<path d="M59.4611 224.194H48.5332V222.537H59.4611V224.194Z" fill="#C7762F"/>
<path d="M82.5553 199.287C82.5553 200.93 81.2269 202.26 79.5923 202.26C77.9551 202.26 76.6294 200.927 76.6294 199.287C76.6294 197.644 77.9578 196.314 79.5923 196.314C81.2296 196.314 82.5553 197.644 82.5553 199.287Z" fill="#C7762F"/>
<g style="mix-blend-mode:screen" opacity="0.5">
<path d="M46.7812 193.933H48.5306V231.021H46.7812V193.933Z" fill="#F5AD49"/>
</g>
<path d="M91.4193 190.935V227.609L85.5454 231.024V193.936L87.1143 193.137L91.4193 190.938V190.935Z" fill="#E38C3B"/>
<g style="mix-blend-mode:multiply" opacity="0.5">
<path d="M91.4193 220.733V227.609L85.5454 231.024V193.935L87.1143 193.137C86.964 198.779 87.2073 204.424 87.8469 210.028C88.1503 212.669 88.5548 215.343 89.6208 217.776C90.0827 218.835 90.6841 219.841 91.4166 220.735L91.4193 220.733Z" fill="#E38C3B"/>
</g>
<g style="mix-blend-mode:multiply" opacity="0.5">
<path d="M91.4195 190.935V191.349C74.6368 193.513 60.4562 192.301 54.022 191.483L55.6401 190.935H91.4195Z" fill="#C7762F"/>
</g>
<path d="M321.314 159.925C324.283 163.068 327.052 166.406 329.621 169.895C332.177 173.395 334.527 177.045 336.692 180.806C341.019 188.332 344.548 196.305 347.492 204.473C350.389 212.661 352.712 221.045 354.601 229.515C355.541 233.75 356.389 238.007 357.165 242.272C357.922 246.542 358.611 250.821 359.264 255.106L358.072 255.295C357.375 251.027 356.64 246.765 355.836 242.519C355.052 238.267 354.207 234.03 353.267 229.817C351.392 221.388 349.186 213.028 346.355 204.877C343.572 196.714 340.155 188.76 336.025 181.184C333.964 177.394 331.712 173.707 329.258 170.158C326.819 166.595 324.174 163.172 321.314 159.927V159.925Z" fill="#1C2540"/>
<path d="M345.267 129.913C349.257 139.579 353.251 149.269 356.244 159.316C356.995 161.823 357.681 164.354 358.277 166.905C358.589 168.178 358.854 169.461 359.122 170.745C359.368 172.031 359.581 173.326 359.813 174.615C360.65 179.788 361.24 185.008 361.514 190.244C362.131 200.713 361.915 211.199 361.872 221.66C361.855 226.89 361.88 232.118 362.063 237.338C362.271 242.555 362.648 247.76 363.277 252.936L362.079 253.084C361.494 247.859 361.166 242.615 361.008 237.373C360.874 232.129 360.901 226.888 360.967 221.652C361.112 211.182 361.429 200.718 360.912 190.277C360.691 185.054 360.152 179.851 359.368 174.689C359.149 173.403 358.95 172.111 358.717 170.827C358.46 169.547 358.209 168.266 357.911 166.993C357.34 164.445 356.681 161.913 355.957 159.404C353.068 149.348 349.164 139.62 345.267 129.916V129.913Z" fill="#1C2540"/>
<path d="M394.272 161.867C374.152 187.04 364.039 219.918 366.452 251.94L365.247 252.025C363.216 219.66 373.838 186.791 394.269 161.869L394.272 161.867Z" fill="#1C2540"/>
<path d="M370.375 279.643H350.017C348.093 279.643 346.483 278.175 346.303 276.25L344.009 251.995H376.386L374.092 276.25C373.909 278.173 372.302 279.643 370.375 279.643V279.643Z" fill="#FF4846"/>
<g style="mix-blend-mode:multiply" opacity="0.5">
<path d="M344.687 259.179L344.009 251.995H376.386L375.705 259.179H344.687Z" fill="#871A1A"/>
</g>
<path d="M378.394 253.811H341.995V247.151H378.394V253.811Z" fill="#FF4846"/>
<path d="M398.487 167.182C397.348 169.259 395.53 170.858 393.863 172.55C393.034 173.386 392.239 174.259 391.479 175.156C388.472 178.686 385.98 182.654 384.085 186.895C382.697 189.997 381.634 193.25 380.928 196.58C380.874 196.846 380.819 197.106 380.764 197.372C379.876 201.909 379.54 206.566 378.206 210.996C377.911 211.964 377.372 213.412 376.632 214.926C374.948 218.385 372.236 222.184 369.139 221.372C368.754 221.281 368.36 221.106 367.97 220.856C367.185 220.36 366.546 219.682 366.026 218.881C364.162 216.004 363.853 211.539 364.107 208.16C364.157 207.493 364.228 206.876 364.312 206.319C364.892 202.499 366.245 198.87 367.685 195.271C368.295 193.744 368.929 192.219 369.519 190.685C370.624 187.827 371.621 184.92 372.682 182.043C373.786 179.039 374.964 176.063 376.413 173.211C377.547 170.976 378.881 168.8 380.434 166.815C382.751 163.841 385.553 161.291 388.902 159.607C390.476 158.814 392.198 158.219 393.961 158.243C395.724 158.274 397.533 159 398.567 160.435C399.95 162.36 399.63 165.098 398.487 167.182V167.182Z" fill="#80D4A9"/>
<g style="mix-blend-mode:screen" opacity="0.2">
<path d="M398.487 167.182C397.348 169.259 395.53 170.858 393.863 172.55C393.034 173.386 392.239 174.259 391.479 175.156C390.826 175.476 390.181 175.817 389.547 176.179C387.084 177.613 384.761 179.698 384.113 182.484C383.774 183.927 383.919 185.411 384.083 186.895C382.694 189.997 381.631 193.25 380.926 196.58C380.871 196.846 380.816 197.106 380.762 197.372C378.884 199.542 376.79 201.629 375.976 204.325C375.336 206.445 375.552 208.722 375.926 210.903C376.156 212.241 376.446 213.58 376.626 214.924C374.942 218.382 372.231 222.181 369.134 221.369C368.749 221.279 368.355 221.103 367.964 220.853C367.18 220.357 366.54 219.68 366.021 218.879C364.157 216.001 363.848 211.536 364.102 208.157C365.436 206.714 367.114 205.529 367.983 203.771C369.287 201.149 368.448 198.223 367.683 195.266C368.292 193.738 368.926 192.213 369.517 190.68C370.621 187.822 371.619 184.914 372.679 182.037C374.918 180.518 377.236 179.009 378.529 176.719C379.966 174.152 379.852 171.039 380.226 168.118C380.281 167.681 380.352 167.245 380.431 166.809C382.749 163.836 385.551 161.285 388.899 159.601C390.473 158.808 392.195 158.213 393.958 158.238C395.721 158.268 397.531 158.995 398.564 160.429C399.947 162.355 399.627 165.092 398.485 167.177L398.487 167.182Z" fill="#80D4A9"/>
</g>
<path d="M367.647 180.191C367.467 183.741 368.011 187.279 368.207 190.822C368.243 191.494 368.273 192.166 368.273 192.838V192.844C368.298 195.74 367.959 198.653 366.74 201.256C365.206 204.534 360.696 209.081 357.269 205.817C355.984 204.6 355.066 203.061 354.426 201.377C353.303 198.434 353.027 195.041 353.117 192.109C353.242 188.074 353.937 184.023 353.882 180.008C353.871 178.795 353.792 177.591 353.603 176.384C353.393 175.01 353.048 173.677 352.614 172.374C350.23 165.292 344.985 159.201 341.989 152.223C341.331 150.698 340.789 149.121 340.36 147.522C339.007 142.483 338.756 137.151 339.655 132.017C339.781 131.301 339.926 130.593 340.095 129.891C340.839 126.803 342.503 123.38 345.521 122.664C345.636 122.634 345.756 122.609 345.876 122.59C349.214 122.058 352.002 125.042 353.893 127.853C356.102 131.123 358.045 134.565 359.893 138.054C360.713 139.587 361.511 141.126 362.306 142.664C364.78 147.437 367.292 152.379 368.645 157.536C368.645 157.536 368.648 157.539 368.65 157.541C369.325 160.117 369.714 162.744 369.659 165.427V165.597C369.52 170.509 367.896 175.282 367.642 180.189L367.647 180.191Z" fill="#80D4A9"/>
<g style="mix-blend-mode:screen" opacity="0.2">
<path d="M367.86 191.275C368.005 191.791 368.145 192.312 368.276 192.838V192.844C368.3 195.74 367.961 198.653 366.742 201.256C365.209 204.534 360.699 209.081 357.271 205.817C355.987 204.6 355.068 203.061 354.429 201.377C355.333 201.286 356.162 200.96 356.88 200.288C358.059 199.18 358.619 197.545 358.788 195.927C359.373 190.337 355.836 185.345 353.887 180.008C353.877 178.795 353.797 177.591 353.609 176.384C353.398 175.01 353.054 173.677 352.619 172.374C352.698 167.166 353.983 161.757 351.34 157.382C348.773 153.142 343.318 151.463 340.366 147.522C339.013 142.483 338.761 137.151 339.66 132.017C339.781 131.652 339.909 131.295 340.04 130.944C340.869 128.714 341.833 126.493 343.353 124.663C343.982 123.906 344.717 123.221 345.526 122.664C345.641 122.634 345.761 122.609 345.882 122.59C349.219 122.058 352.007 125.042 353.898 127.853C356.107 131.123 358.05 134.565 359.898 138.054C359.917 138.715 359.928 139.373 359.953 140.028C360.087 144.088 360.568 148.364 362.965 151.633C364.348 153.512 366.261 154.916 367.855 156.611C368.134 156.902 368.399 157.212 368.65 157.533C368.65 157.533 368.653 157.536 368.656 157.539C369.331 160.114 369.719 162.742 369.664 165.424C369.235 166.261 368.71 167.064 368.246 167.876C366.062 171.68 365.053 176.151 365.389 180.529C365.674 184.199 366.868 187.726 367.858 191.267L367.86 191.275Z" fill="#80D4A9"/>
</g>
<path d="M356.826 210.639C356.806 210.971 356.785 211.306 356.755 211.638C356.506 214.389 355.926 220.82 352.398 221.451C349.899 221.893 346.264 217.491 344.274 216.103C343.156 215.327 342.011 214.553 340.918 213.722C339.168 212.408 337.545 210.941 336.353 209.076C335.26 207.367 334.639 205.472 334.235 203.497C333.59 200.359 333.48 197.01 332.895 193.848C332.636 192.43 332.28 191.05 331.84 189.692C330.222 184.725 327.483 180.158 324.307 175.888C324.307 175.888 324.304 175.888 324.302 175.888C322.733 173.773 321.06 171.732 319.357 169.752C318.767 169.066 318.168 168.359 317.589 167.627C315.585 165.07 313.893 162.237 314.202 159.091C314.607 155.021 318.603 151.902 322.678 151.713C326.754 151.518 330.651 153.773 333.308 156.88C334.068 157.763 334.732 158.715 335.336 159.708C336.84 162.19 337.908 164.966 338.824 167.744C339.474 169.725 340.062 171.73 340.713 173.71C341.341 175.611 342.027 177.501 342.891 179.308C343.771 181.157 344.824 182.907 345.952 184.615C348.27 188.134 350.897 191.478 352.972 195.107C353.756 196.475 354.461 197.88 355.041 199.353C356.454 202.926 357.033 206.802 356.828 210.636L356.826 210.639Z" fill="#80D4A9"/>
<g style="mix-blend-mode:screen" opacity="0.2">
<path d="M356.826 210.639C356.807 210.971 356.785 211.306 356.755 211.638C356.506 214.389 355.927 220.821 352.398 221.451C349.9 221.893 346.264 217.491 344.274 216.103C343.156 215.327 342.011 214.553 340.918 213.722C341.342 211.632 341.727 209.416 340.748 207.562C339.535 205.255 336.782 204.473 334.235 203.497C333.59 200.359 333.48 197.01 332.896 193.848C332.636 192.43 332.281 191.05 331.84 189.692C332.559 188.294 333.24 186.876 333.688 185.362C334.582 182.328 334.197 178.554 331.625 176.724C329.741 175.386 327.218 175.441 324.936 175.786C324.731 175.817 324.521 175.852 324.307 175.891C324.307 175.891 324.305 175.891 324.302 175.891C322.733 173.776 321.06 171.735 319.357 169.755C318.767 169.069 318.168 168.362 317.589 167.629C320.716 165.158 324.228 163.159 327.948 161.735C330.236 160.857 332.609 160.196 335.022 159.766C335.126 159.746 335.227 159.73 335.336 159.711C336.84 162.193 337.908 164.969 338.824 167.747C339.475 169.728 340.062 171.733 340.713 173.713C340.423 174.385 340.153 175.071 339.939 175.773C339.141 178.395 339.354 181.667 341.522 183.332C342.766 184.295 344.335 184.514 345.953 184.615C348.271 188.135 350.897 191.478 352.972 195.107C352.313 196.585 351.523 198.009 350.933 199.517C350.053 201.783 349.684 204.484 350.963 206.544C352.226 208.568 354.71 209.452 356.831 210.639H356.826Z" fill="#80D4A9"/>
</g>
<path fill-rule="evenodd" clip-rule="evenodd" d="M89.0253 107.48V109.345H87.3662V107.529C85.7235 107.43 84.1463 106.912 83.2334 106.196L84.1463 104.163C84.9773 104.778 86.1717 105.23 87.3662 105.346V102.564C85.5239 102.115 83.4657 101.497 83.4657 99.1167C83.4657 97.3504 84.7422 95.8363 87.3662 95.5374V93.6887H89.0253V95.5045C90.269 95.6032 91.4826 95.9378 92.3955 96.5193L91.5646 98.5682C90.7173 98.0854 89.8563 97.8029 89.0253 97.7014V100.532C90.8676 100.965 92.893 101.58 92.893 103.93C92.893 105.661 91.6302 107.161 89.0253 107.477V107.48ZM87.3662 100.118V97.7536C86.4861 97.9538 86.1389 98.4365 86.1389 98.9851C86.1389 99.5666 86.6364 99.8847 87.3662 100.118ZM90.2198 104.131C90.2198 103.549 89.7387 103.231 89.0253 102.981V105.28C89.8563 105.096 90.2198 104.663 90.2198 104.131Z" fill="white"/>
<path fill-rule="evenodd" clip-rule="evenodd" d="M81.7736 96.2642V97.1803H80.9591V96.2889C80.1528 96.2396 79.3765 95.9872 78.9282 95.6334L79.3765 94.635C79.7838 94.9367 80.3714 95.1589 80.9591 95.2165V93.8506C80.0544 93.6284 79.043 93.3267 79.043 92.1555C79.043 91.2888 79.6717 90.5427 80.9591 90.3974V89.4895H81.7736V90.3809C82.3859 90.4303 82.979 90.5949 83.43 90.8801L83.0227 91.8867C82.6073 91.6481 82.1836 91.511 81.7763 91.4616V92.8522C82.6811 93.0661 83.676 93.3678 83.676 94.5226C83.676 95.3728 83.0555 96.1106 81.7763 96.2642H81.7736ZM80.9591 92.6492V91.4863C80.5272 91.585 80.355 91.8209 80.355 92.0924C80.355 92.3777 80.601 92.534 80.9591 92.6492V92.6492ZM82.3613 94.6213C82.3613 94.3361 82.1235 94.1797 81.7736 94.0563V95.1863C82.1809 95.0958 82.3613 94.8846 82.3613 94.6213Z" fill="white"/>
<path d="M178.419 56.7843C178.419 60.4761 173.428 68.123 170.921 71.7298C170.24 72.709 168.8 72.709 168.117 71.7298C165.61 68.123 160.619 60.4761 160.619 56.7843C160.619 51.8527 164.602 47.8564 169.516 47.8564C174.431 47.8564 178.413 51.8527 178.413 56.7843H178.419Z" fill="#D6EDF1"/>
<path d="M173.22 56.7843C173.22 58.8332 171.563 60.4953 169.521 60.4953C167.48 60.4953 165.823 58.8332 165.823 56.7843C165.823 54.7354 167.48 53.0733 169.521 53.0733C171.563 53.0733 173.22 54.7354 173.22 56.7843Z" fill="white"/>
<path d="M243.032 7.26569L244.926 11.1193L249.166 11.7365L246.099 14.7371L246.823 18.972L243.032 16.9725L239.241 18.972L239.965 14.7371L236.898 11.7365L241.138 11.1193L243.032 7.26569V7.26569Z" fill="#F5AD49"/>
<path d="M257.445 7.26569L259.339 11.1193L263.578 11.7365L260.511 14.7371L261.236 18.972L257.445 16.9725L253.654 18.972L254.378 14.7371L251.311 11.7365L255.55 11.1193L257.445 7.26569V7.26569Z" fill="#F5AD49"/>
<path d="M271.861 7.26569L273.755 11.1193L277.994 11.7365L274.927 14.7371L275.652 18.972L271.861 16.9725L268.07 18.972L268.794 14.7371L265.727 11.7365L269.966 11.1193L271.861 7.26569V7.26569Z" fill="#F5AD49"/>
<path d="M286.273 7.26569L288.167 11.1193L292.407 11.7365L289.34 14.7371L290.064 18.972L286.273 16.9725L282.482 18.972L283.206 14.7371L280.14 11.7365L284.379 11.1193L286.273 7.26569V7.26569Z" fill="#F5AD49"/>
<path d="M300.689 7.26569L302.583 11.1193L306.822 11.7365L303.756 14.7371L304.48 18.972L300.689 16.9725L296.898 18.972L297.622 14.7371L294.555 11.7365L298.795 11.1193L300.689 7.26569V7.26569Z" fill="#F5AD49"/>
<path d="M38.5649 50.9339V65.4461V66.7928V70.1939C38.5649 70.8138 37.9417 71.2362 37.3704 71.0058L29.3836 67.8076H12.5709C12.0133 67.8076 11.5596 67.3523 11.5596 66.7928V50.9312C11.5596 50.3716 12.0133 49.9163 12.5709 49.9163H37.5536C38.1112 49.9163 38.5649 50.3716 38.5649 50.9312V50.9339Z" fill="#F5AD49"/>
<path d="M18.8083 58.803C18.8083 59.4558 18.2807 59.9851 17.6302 59.9851C16.9797 59.9851 16.4521 59.4558 16.4521 58.803C16.4521 58.1502 16.9797 57.6208 17.6302 57.6208C18.2807 57.6208 18.8083 58.1502 18.8083 58.803Z" fill="white"/>
<path d="M26.2404 58.803C26.2404 59.4558 25.7129 59.9851 25.0623 59.9851C24.4118 59.9851 23.8843 59.4558 23.8843 58.803C23.8843 58.1502 24.4118 57.6208 25.0623 57.6208C25.7129 57.6208 26.2404 58.1502 26.2404 58.803Z" fill="white"/>
<path d="M33.6721 58.803C33.6721 59.4558 33.1445 59.9851 32.494 59.9851C31.8435 59.9851 31.3159 59.4558 31.3159 58.803C31.3159 58.1502 31.8435 57.6208 32.494 57.6208C33.1445 57.6208 33.6721 58.1502 33.6721 58.803Z" fill="white"/>
<path d="M119.001 32.3295V46.8416V48.1884V51.5894C119.001 52.2093 118.378 52.6317 117.807 52.4013L109.82 49.2032H99.0152C98.4576 49.2032 98.0039 48.7479 98.0039 48.1884V32.3267C98.0039 31.7672 98.4576 31.3119 99.0152 31.3119H117.987C118.545 31.3119 118.999 31.7672 118.999 32.3267L119.001 32.3295Z" fill="#FF4846"/>
<path fill-rule="evenodd" clip-rule="evenodd" d="M104.165 38.3993C104.165 37.1513 104.925 36.3586 105.999 36.3586C107.073 36.3586 107.822 37.1403 107.822 38.3993C107.822 39.6582 107.073 40.4399 105.999 40.4399C104.925 40.4399 104.165 39.6473 104.165 38.3993ZM106.767 38.3993C106.767 37.6066 106.461 37.2254 105.999 37.2254C105.545 37.2254 105.231 37.6176 105.231 38.3993C105.231 39.181 105.548 39.5732 105.999 39.5732C106.464 39.5732 106.767 39.192 106.767 38.3993ZM110.392 36.4437H111.646L106.609 43.8465H105.354L110.392 36.4437ZM109.181 41.8909C109.181 40.6429 109.941 39.8502 111.004 39.8502C112.078 39.8502 112.838 40.6429 112.838 41.8909C112.838 43.1389 112.078 43.9315 111.004 43.9315C109.941 43.9315 109.181 43.1389 109.181 41.8909ZM111.772 41.8909C111.772 41.1092 111.466 40.717 111.004 40.717C110.55 40.717 110.236 41.0982 110.236 41.8909C110.236 42.6836 110.553 43.0648 111.004 43.0648C111.469 43.0648 111.772 42.6726 111.772 41.8909Z" fill="white"/>
<path d="M46.7703 133.78C46.3821 134.957 46.0733 136.153 45.8354 137.36" stroke="white" stroke-width="3"/>
<path d="M236.313 198.672C228.127 188.795 215.972 182.342 203.382 179.432C188.376 175.965 172.695 177.026 157.454 179.237C142.213 181.448 127.108 184.791 111.744 185.855C100.822 186.612 89.6891 186.187 79.1986 183.049C68.7053 179.914 58.8489 173.891 52.4147 165.004C48.1698 159.14 45.5731 151.96 45.2861 144.754" stroke="white" stroke-width="3" stroke-dasharray="27 27"/>
<path d="M238.565 201.624C239.271 202.63 239.938 203.667 240.563 204.737" stroke="white" stroke-width="3" stroke-dasharray="27 27"/>
<g style="mix-blend-mode:multiply" opacity="0.5">
<path d="M69.241 123.1L46.1225 130.78L40.541 125.149L69.241 123.1V123.1Z" fill="#80C8D4"/>
</g>
<path d="M49.6348 134.518L45.8628 135.75L48.0877 133.24L49.6375 134.518H49.6348Z" fill="#577BB5"/>
<g style="mix-blend-mode:multiply" opacity="0.5">
<path d="M69.241 123.1C69.2683 123.031 64.3018 129.34 54.3388 142.028L48.085 133.24C62.1616 126.55 69.2136 123.168 69.241 123.1V123.1Z" fill="#80C8D4"/>
</g>
<path d="M45.8626 135.75L46.1223 130.78L69.2408 123.1L48.0848 133.24L45.8599 135.75H45.8626Z" fill="#4E6FA3"/>
<path d="M29.1103 111.901C29.1103 114.145 27.2981 115.963 25.0622 115.963C22.8264 115.963 21.0142 114.145 21.0142 111.901C21.0142 109.657 22.8264 107.839 25.0622 107.839C27.2981 107.839 29.1103 109.657 29.1103 111.901Z" fill="#D6EDF1"/>
<path d="M22.6898 124.762C22.6898 126.339 21.4161 127.617 19.8444 127.617C18.2728 127.617 16.999 126.339 16.999 124.762C16.999 123.185 18.2728 121.907 19.8444 121.907C21.4161 121.907 22.6898 123.185 22.6898 124.762Z" fill="#D6EDF1"/>
<path d="M80.6367 120.829C80.6367 122.664 79.1553 124.15 77.3267 124.15C75.4981 124.15 74.0166 122.664 74.0166 120.829C74.0166 118.994 75.4981 117.507 77.3267 117.507C79.1553 117.507 80.6367 118.994 80.6367 120.829Z" fill="white"/>
<path d="M88.481 135.143C88.481 136.57 87.3303 137.724 85.909 137.724C84.4876 137.724 83.3369 136.57 83.3369 135.143C83.3369 133.717 84.4876 132.562 85.909 132.562C87.3303 132.562 88.481 133.717 88.481 135.143Z" fill="white"/>
<path d="M215.595 143.794C215.595 144.42 215.092 144.924 214.468 144.924C213.845 144.924 213.342 144.42 213.342 143.794C213.342 143.169 213.845 142.664 214.468 142.664C215.092 142.664 215.595 143.169 215.595 143.794Z" fill="white"/>
<path d="M47.3418 174.832C47.3418 175.863 46.5109 176.697 45.4832 176.697C44.4554 176.697 43.6245 175.863 43.6245 174.832C43.6245 173.801 44.4582 172.967 45.4832 172.967C46.5109 172.967 47.3418 173.801 47.3418 174.832Z" fill="white"/>
<path d="M181.245 216.292C181.245 217.238 180.479 218.006 179.536 218.006C178.593 218.006 177.828 217.238 177.828 216.292C177.828 215.346 178.593 214.578 179.536 214.578C180.479 214.578 181.245 215.346 181.245 216.292Z" fill="white"/>
<path d="M373.032 76.0442C373.032 76.9768 372.28 77.7311 371.351 77.7311C370.422 77.7311 369.67 76.9768 369.67 76.0442C369.67 75.1117 370.422 74.3574 371.351 74.3574C372.28 74.3574 373.032 75.1117 373.032 76.0442Z" fill="#D6EDF1"/>
<path d="M378.395 125.544C378.395 126.569 377.566 127.401 376.544 127.401C375.522 127.401 374.694 126.569 374.694 125.544C374.694 124.518 375.522 123.687 376.544 123.687C377.566 123.687 378.395 124.518 378.395 125.544Z" fill="white"/>
<path d="M387.224 96.2011C387.224 97.3531 386.294 98.2856 385.146 98.2856C383.998 98.2856 383.069 97.3531 383.069 96.2011C383.069 95.0491 383.998 94.1166 385.146 94.1166C386.294 94.1166 387.224 95.0491 387.224 96.2011Z" fill="#D6EDF1"/>
<path d="M224.235 35.2779C224.235 36.2681 223.434 37.0717 222.447 37.0717C221.461 37.0717 220.66 36.2681 220.66 35.2779C220.66 34.2878 221.461 33.4841 222.447 33.4841C223.434 33.4841 224.235 34.2878 224.235 35.2779Z" fill="#D6EDF1"/>
<path d="M89.9326 38.3608C89.9326 39.074 89.3559 39.65 88.6479 39.65C87.9373 39.65 87.3633 39.0712 87.3633 38.3608C87.3633 37.6477 87.94 37.0717 88.6479 37.0717C89.3586 37.0717 89.9326 37.6504 89.9326 38.3608Z" fill="#D6EDF1"/>
<path style="mix-blend-mode:multiply" opacity="0.5" d="M297.026 283.014C297.026 284.972 278.292 286.56 255.184 286.56C232.077 286.56 213.342 284.972 213.342 283.014C213.342 281.055 232.077 279.467 255.184 279.467C278.292 279.467 297.026 281.055 297.026 283.014Z" fill="url(#paint1_radial_319_707)"/>
<path d="M247.102 214.386C247.717 222.952 247.747 230.733 247.422 237.65C246.673 253.479 244.535 265.918 241.007 274.961L233.05 274.78L228.064 202.482L227.504 194.341C229.152 194.196 230.795 194.032 232.405 193.886C238.809 193.324 245.189 192.468 251.546 191.505C250.327 200.162 248.846 207.789 247.105 214.383L247.102 214.386Z" fill="#C7683C"/>
<g style="mix-blend-mode:multiply" opacity="0.5">
<path d="M247.102 214.386C247.717 222.952 247.747 230.733 247.422 237.65L245.645 218.555C244.798 209.446 237.18 202.482 228.064 202.482L227.504 194.341C229.152 194.196 230.795 194.032 232.405 193.886C238.809 193.324 245.189 192.468 251.546 191.505C250.327 200.162 248.846 207.789 247.105 214.383L247.102 214.386Z" fill="#C7683C"/>
</g>
<path d="M241.99 274.599C243.015 277.739 243.207 280.183 242.559 281.927H222.114C221.22 279.412 222.71 278.29 226.58 278.565L232.435 274.961L231.716 262.95C233.908 261.436 235.827 261.746 237.47 263.877L244.609 264.494L241.99 274.599Z" fill="#E6E6E6"/>
<path d="M237.47 263.877C236.513 270.438 235.887 274.132 235.597 274.961C235.157 276.198 233.001 279.442 230.642 279.467C229.065 279.484 227.709 279.182 226.58 278.565L232.435 274.961L231.716 262.95C233.908 261.436 235.827 261.746 237.47 263.877V263.877Z" fill="#A9C0C4"/>
<path d="M265.62 209.83C272.623 227.2 280.071 246.828 280.594 265.907C277.907 266.469 276.048 269.525 272.839 268.493C262.619 247.999 251.123 217.732 242.554 192.775C246.408 192.279 250.254 191.711 254.094 191.113C257.39 190.6 260.643 190.032 263.857 189.382C264.757 196.796 265.262 203.867 265.62 209.83V209.83Z" fill="#D4774C"/>
<path d="M282.091 265.303C284.349 267.712 285.552 269.845 285.702 271.7L267.187 280.397C265.314 278.499 266.189 276.851 269.811 275.452L273.591 269.697L267.864 259.124C269.212 256.82 271.079 256.282 273.465 257.517L280.194 255.037L282.091 265.301V265.303Z" fill="#E6E6E6"/>
<path d="M273.468 257.516C275.373 263.866 276.368 267.478 276.455 268.351C276.578 269.656 275.999 273.515 273.872 274.541C272.451 275.227 271.098 275.531 269.81 275.452L273.591 269.697L267.864 259.124C269.212 256.82 271.079 256.282 273.465 257.516H273.468Z" fill="#A9C0C4"/>
<path d="M273.273 166.305C271.215 166.952 269.258 167.838 267.178 168.359C263.266 157.056 259.139 144.875 254.031 134.598C252.866 132.253 251.732 130.061 250.614 127.966C249.031 124.984 247.482 122.2 245.913 119.43C249.25 118.072 252.522 116.547 255.794 115.028C256.881 114.526 257.972 114.021 259.06 113.519C260.293 116.262 261.397 119.054 262.411 121.86C263.25 124.181 264.029 126.507 264.759 128.819C268.695 141.32 271.158 153.435 273.276 166.305H273.273Z" fill="#D4774C"/>
<path d="M269.602 162.934C270.573 163.309 271.576 164.006 272.609 165.018C274.159 166.538 274.348 169.593 275.247 170.921C276.146 172.248 276.993 173.351 276.69 173.718C276.387 174.089 275.848 173.562 274.249 171.609C273.585 171.107 273.402 171.236 273.705 171.993C274.159 173.129 275.911 175.474 275.367 176.063C274.924 176.541 272.658 172.868 272.388 172.811C272.12 172.753 274.227 177.632 273.35 178.315C272.472 178.996 271.576 173.137 270.931 173.066C270.286 172.994 271.404 177.136 270.83 177.347C269.578 177.808 269.168 171.011 268.61 171.154C268.05 171.296 267.618 173.817 266.861 173.666C266.104 173.518 267.088 170.94 267.047 170.422C267.006 169.903 265.932 163.913 269.605 162.934H269.602Z" fill="#D4774C"/>
<path d="M262.408 121.857L250.614 127.963C249.031 124.981 247.482 122.198 245.913 119.427C249.25 118.07 252.522 116.545 255.794 115.025C256.881 114.523 257.972 114.018 259.06 113.517C260.293 116.259 261.397 119.052 262.411 121.857H262.408Z" fill="#BF6237"/>
<path d="M261.503 116.805C255.132 121.185 250.51 123.481 247.632 123.687L235.632 101.731C235.58 100.919 235.613 99.9533 235.728 98.8343C236.332 93.1101 243.081 90.2987 247.503 93.9521L247.629 94.0618C248.534 94.8243 249.687 96.3027 250.936 98.1513C254.257 103.053 258.275 110.568 260.262 114.391C260.776 115.384 261.189 116.191 261.501 116.808L261.503 116.805Z" fill="#D99434"/>
<g style="mix-blend-mode:multiply" opacity="0.5">
<path d="M261.503 116.805C255.132 121.185 250.51 123.481 247.632 123.687L235.632 101.731C235.58 100.919 235.613 99.9533 235.728 98.8343C236.332 93.1101 243.081 90.2987 247.503 93.9521L247.629 94.0618C248.534 94.8243 249.687 96.3027 250.936 98.1513C250.537 102.803 250.138 107.46 249.742 112.112C249.646 113.215 249.567 114.397 250.097 115.365C250.781 116.624 252.311 117.181 253.743 117.249C256.201 117.359 258.658 116.243 260.262 114.391C260.776 115.384 261.189 116.191 261.501 116.808L261.503 116.805Z" fill="#D99434"/>
</g>
<path d="M241.701 90.444C241.174 91.3355 240.739 92.2653 240.384 93.3185C240.34 93.4529 240.318 93.5818 240.293 93.7107C238.96 95.3235 237.186 96.4234 235.297 97.334C232.892 98.4914 230.213 99.0373 227.57 99.3143C227.299 99.3417 226.985 99.3801 226.657 99.4185C225.752 99.1058 224.861 98.752 224.014 98.3351C224.623 97.4519 225.307 96.5029 226.045 95.3729C227.362 93.3569 229.292 91.8292 231.519 91.02V76.5983H240.621V90.3398C240.974 90.37 241.335 90.4056 241.701 90.444V90.444Z" fill="#D4774C"/>
<path d="M240.485 79.9912C239.681 82.1827 238.651 84.1877 237.377 85.4494C236.048 86.7769 234.734 87.5147 233.569 87.9207C232.809 88.1867 232.11 88.3074 231.522 88.3568V85.9595C232.216 86.0144 233.31 85.9787 234.594 85.5234C235.759 85.123 237.076 84.3797 238.41 83.0577C239.194 82.276 239.889 81.209 240.487 79.9939L240.485 79.9912Z" fill="#BF6237"/>
<path d="M268.479 192.902C267.845 193.066 266.722 193.327 265.238 193.659C257.259 195.428 238.782 199.147 228.846 199.649C227.657 199.709 226.583 199.728 225.67 199.685L224.746 132.579C224.142 128.904 223.527 125.176 222.898 121.391C221.988 115.947 221.04 110.349 220.816 109.306C220.351 107.181 219.927 105.823 223.628 98.475C226.091 93.5818 228.737 91.0859 231.566 90.9899C229.426 91.426 227.192 93.5681 224.872 97.4163C229.822 96.0421 233.214 94.3964 235.048 92.4737C236.888 90.5483 238.916 89.7885 241.132 90.1972C243.945 90.6991 245.749 92.3174 246.902 94.0975C248.447 96.4892 248.931 99.4267 248.417 102.233C247.807 105.565 247.463 109.866 247.282 113.928C247.072 118.385 247.004 122.631 247.072 126.66C254.46 133.953 257.445 143.331 256.029 154.796L268.477 192.902H268.479Z" fill="#F5AD49"/>
<path d="M239.919 114.597C239.427 118.034 239.006 121.482 238.749 124.94C238.615 126.668 238.525 128.402 238.522 130.13C238.517 130.563 238.522 130.994 238.544 131.424C238.558 131.855 238.571 132.286 238.618 132.713L238.672 133.355C238.7 133.569 238.741 133.78 238.774 133.992C238.847 134.417 238.91 134.839 238.989 135.264C240.362 142.058 241.925 148.83 243.489 155.591L248.146 175.893L250.464 186.047L252.738 196.212C250.997 189.49 249.335 182.748 247.692 176C246.052 169.253 244.475 162.489 242.898 155.726L240.629 145.558C239.905 142.16 239.137 138.775 238.53 135.347C238.456 134.916 238.396 134.483 238.331 134.049C238.301 133.833 238.262 133.616 238.238 133.399L238.191 132.744C238.153 132.308 238.142 131.869 238.137 131.433C238.123 130.996 238.126 130.56 238.137 130.124C238.167 128.38 238.282 126.644 238.448 124.913C238.804 121.454 239.285 118.009 239.911 114.594L239.919 114.597Z" fill="#C2612D"/>
<g style="mix-blend-mode:screen" opacity="0.5">
<path d="M244.5 103.626L237.42 125.407C237.42 125.407 237.42 125.409 237.418 125.409C230.551 137.231 227.127 150.75 227.608 164.423L228.849 199.646C227.66 199.706 226.585 199.726 225.672 199.682L224.749 132.576C224.145 128.901 223.53 125.173 222.901 121.388L241.698 100.826L244.5 103.623V103.626Z" fill="#F5AD49"/>
</g>
<g style="mix-blend-mode:multiply" opacity="0.5">
<path d="M268.479 192.902C267.845 193.066 266.722 193.327 265.238 193.659L252.744 154.458C254.558 146.362 251.809 137.735 244.497 128.583L247.285 113.931C247.075 118.388 247.006 122.634 247.075 126.663C254.463 133.956 257.448 143.334 256.032 154.798L268.479 192.904V192.902Z" fill="#F5AD49"/>
</g>
<path d="M189.294 112.414C187.419 112.757 186.616 113.163 184.962 114.123C182.409 109.553 179.936 105.044 177.828 100.217C180.026 99.2566 182.273 98.4228 184.451 97.4217C186.662 102.581 188.958 106.698 189.292 112.417L189.294 112.414Z" fill="#67B38B"/>
<path d="M184.894 112.469C182.388 109.122 181.01 104.973 179.184 101.231C179.52 101.039 179.624 100.754 179.512 100.384C180.827 99.8518 182.147 99.3361 183.448 98.7711C183.639 99.103 183.929 99.2182 184.295 99.103C186.14 102.937 188.324 106.627 188.516 110.982C188.147 111.084 188.013 111.355 187.988 111.72C187.048 111.835 186.395 112.142 185.646 112.721C185.457 112.45 185.208 112.315 184.894 112.469V112.469Z" fill="#80D4A9"/>
<path d="M186.665 105.055C187.195 106.286 186.537 107.512 185.345 108.012C184.153 108.511 182.866 108.113 182.349 106.904C181.833 105.691 182.325 104.355 183.535 103.829C184.749 103.302 186.135 103.826 186.662 105.058L186.665 105.055Z" fill="#67B38B"/>
<path fill-rule="evenodd" clip-rule="evenodd" d="M185.744 105.187C185.891 105.132 186.023 105.071 186.165 105.014C186.217 105.134 186.271 105.255 186.321 105.379C186.187 105.433 186.05 105.491 185.916 105.549C186.025 105.891 186.072 106.221 185.987 106.572C185.809 106.566 185.635 106.561 185.457 106.563C185.52 106.284 185.509 106.031 185.432 105.757C185.23 105.848 185.017 105.935 184.817 106.029C184.847 106.531 184.935 106.928 184.372 107.186C183.954 107.378 183.486 107.126 183.254 106.712C183.103 106.766 182.97 106.824 182.827 106.882C182.778 106.761 182.726 106.637 182.674 106.517C182.814 106.462 182.953 106.407 183.09 106.352C183.008 106.072 182.961 105.793 182.989 105.502C183.172 105.502 183.355 105.502 183.538 105.502C183.524 105.724 183.541 105.938 183.593 106.155C183.803 106.067 184.022 105.982 184.219 105.878C184.191 105.39 184.036 104.953 184.601 104.685C185.02 104.487 185.509 104.775 185.741 105.187H185.744ZM184.284 106.275C184.107 106.35 183.929 106.426 183.754 106.503C183.855 106.624 183.981 106.706 184.134 106.64C184.287 106.572 184.282 106.421 184.284 106.278V106.275ZM184.897 105.255C184.746 105.324 184.752 105.48 184.752 105.623C184.921 105.549 185.093 105.475 185.26 105.398C185.164 105.283 185.047 105.187 184.897 105.255Z" fill="#80D4A9"/>
<path d="M189.114 113.127C187.214 112.951 186.334 113.124 184.484 113.601C183.251 108.511 182.081 103.5 181.349 98.2802C183.721 97.9483 186.11 97.7536 188.477 97.3778C189.221 102.946 190.325 107.529 189.114 113.127Z" fill="#67B38B"/>
<path d="M184.861 111.991C183.347 108.091 183.133 103.722 182.379 99.6269C182.753 99.5309 182.934 99.2868 182.923 98.9C184.331 98.7437 185.741 98.6011 187.146 98.4118C187.242 98.7821 187.49 98.9741 187.873 98.9604C188.619 103.151 189.734 107.296 188.748 111.542C188.365 111.539 188.163 111.767 188.042 112.109C187.105 111.967 186.394 112.087 185.517 112.439C185.407 112.126 185.205 111.928 184.861 111.991V111.991Z" fill="#80D4A9"/>
<path d="M188.556 105.326C188.734 106.657 187.772 107.658 186.493 107.817C185.214 107.976 184.077 107.246 183.904 105.941C183.732 104.635 184.563 103.481 185.872 103.3C187.182 103.121 188.376 103.999 188.554 105.329L188.556 105.326Z" fill="#67B38B"/>
<path fill-rule="evenodd" clip-rule="evenodd" d="M187.635 105.206C187.794 105.192 187.936 105.17 188.089 105.154C188.105 105.285 188.125 105.417 188.141 105.549C187.996 105.565 187.851 105.584 187.706 105.601C187.72 105.96 187.676 106.289 187.499 106.605C187.329 106.552 187.16 106.5 186.99 106.454C187.127 106.201 187.182 105.955 187.182 105.669C186.96 105.702 186.733 105.73 186.517 105.765C186.411 106.256 186.389 106.665 185.777 106.761C185.323 106.832 184.94 106.465 184.825 106.001C184.667 106.012 184.522 106.034 184.369 106.048C184.353 105.916 184.336 105.787 184.32 105.656C184.467 105.639 184.618 105.625 184.765 105.609C184.76 105.315 184.793 105.036 184.897 104.761C185.071 104.811 185.249 104.86 185.424 104.91C185.35 105.121 185.309 105.329 185.304 105.554C185.531 105.527 185.763 105.505 185.982 105.458C186.086 104.981 186.055 104.517 186.67 104.413C187.124 104.336 187.521 104.745 187.635 105.206V105.206ZM185.935 105.859C185.744 105.883 185.553 105.908 185.364 105.933C185.43 106.075 185.528 106.19 185.692 106.166C185.859 106.141 185.894 105.996 185.935 105.856V105.859ZM186.799 105.041C186.635 105.066 186.599 105.217 186.561 105.357C186.744 105.332 186.93 105.304 187.113 105.277C187.05 105.143 186.966 105.014 186.802 105.041H186.799Z" fill="#80D4A9"/>
<path d="M188.748 113.763C186.966 113.08 186.072 113.009 184.161 112.968C184.342 107.732 184.56 102.589 185.254 97.3668C187.63 97.6905 189.98 98.1485 192.361 98.4255C191.582 103.988 191.415 108.703 188.745 113.763H188.748Z" fill="#67B38B"/>
<path d="M184.957 111.52C184.544 107.353 185.514 103.088 185.886 98.9412C186.272 98.9522 186.512 98.7629 186.605 98.3871C188.004 98.6175 189.398 98.8617 190.803 99.0591C190.795 99.4431 190.984 99.6927 191.356 99.7832C190.948 104.021 190.91 108.313 188.819 112.134C188.453 112.03 188.196 112.192 187.985 112.491C187.122 112.101 186.403 112.022 185.465 112.126C185.443 111.794 185.301 111.55 184.954 111.52H184.957Z" fill="#80D4A9"/>
<path d="M190.306 106.103C190.12 107.43 188.925 108.135 187.649 107.943C186.372 107.751 185.476 106.739 185.662 105.436C185.847 104.133 186.957 103.245 188.266 103.426C189.576 103.607 190.489 104.775 190.306 106.105V106.103Z" fill="#67B38B"/>
<path fill-rule="evenodd" clip-rule="evenodd" d="M189.45 105.735C189.606 105.765 189.748 105.782 189.901 105.806C189.882 105.938 189.865 106.07 189.846 106.199C189.701 106.177 189.557 106.155 189.412 106.133C189.327 106.481 189.196 106.786 188.942 107.043C188.794 106.947 188.644 106.851 188.493 106.761C188.69 106.555 188.813 106.333 188.89 106.059C188.668 106.031 188.441 105.996 188.225 105.971C187.99 106.415 187.862 106.802 187.244 106.728C186.788 106.673 186.517 106.215 186.534 105.738C186.378 105.708 186.233 105.689 186.083 105.661C186.102 105.532 186.121 105.401 186.14 105.272C186.288 105.296 186.435 105.324 186.58 105.348C186.654 105.066 186.758 104.803 186.935 104.569C187.091 104.665 187.247 104.759 187.405 104.855C187.277 105.038 187.181 105.228 187.116 105.442C187.34 105.477 187.569 105.518 187.794 105.532C188.023 105.102 188.116 104.646 188.737 104.712C189.196 104.761 189.466 105.261 189.453 105.735H189.45ZM187.638 105.905C187.446 105.875 187.258 105.848 187.067 105.823C187.091 105.979 187.154 106.114 187.321 106.138C187.487 106.16 187.561 106.029 187.638 105.908V105.905ZM188.687 105.351C188.523 105.332 188.447 105.466 188.373 105.59C188.556 105.617 188.742 105.639 188.925 105.664C188.903 105.516 188.854 105.37 188.687 105.351Z" fill="#80D4A9"/>
<path d="M236.573 119.707C235.335 121.432 234.031 123.125 232.681 124.77C232.585 124.896 232.476 125.025 232.372 125.151C231.068 126.74 228.816 129.227 226.837 131.372C224.495 133.917 220.807 134.666 217.661 133.243C215.578 132.299 213.326 131.262 211.836 130.536C207.829 128.566 203.989 126.276 200.168 123.884C196.347 121.498 192.556 119.008 188.65 116.651C187.906 116.226 186.999 115.672 185.933 114.987C185.156 114.844 184.763 114.359 184.749 113.527C184.153 113.5 183.864 113.165 183.88 112.521C183.044 112.225 182.814 111.698 183.191 110.933C184.216 111.341 184.746 111.484 184.779 111.363C184.82 111.182 180.819 108.662 181.778 108.316C182.737 107.965 187.023 110.521 188.647 110.653C189.729 110.741 190.363 110.291 190.549 109.295L190.899 107.968C191.345 108.316 191.645 108.689 191.798 109.09C191.951 109.485 191.894 110.417 191.629 111.882C200.25 115.255 209.327 118.829 218.115 121.506C219.225 119.828 220.277 118.193 221.302 116.583C222.677 114.422 224 112.288 225.339 110.126C226.498 111.234 227.692 112.312 228.901 113.374C231.393 115.56 233.946 117.675 236.568 119.704L236.573 119.707Z" fill="#D4774C"/>
<path d="M236.573 119.707C235.335 121.432 234.031 123.125 232.681 124.77C227.411 123.596 223.475 119.441 221.308 116.588C222.682 114.427 224.005 112.293 225.345 110.132C226.504 111.24 227.698 112.318 228.906 113.379C231.399 115.565 233.952 117.68 236.573 119.71V119.707Z" fill="#BF6237"/>
<path d="M222.819 112.436L234.764 94.9203C241.072 92.0349 245 94.1715 246.544 101.338L235.627 121.907C229.964 120.878 225.694 117.721 222.819 112.436V112.436Z" fill="#F5AD49"/>
<path d="M223.39 113.275C223.177 113.012 222.964 112.746 222.759 112.477L222.731 112.441L222.759 112.395C223.513 111.158 224.325 109.959 225.118 108.75C225.929 107.551 226.752 106.363 227.591 105.187C228.433 104.013 229.278 102.839 230.163 101.692C231.038 100.54 231.921 99.3938 232.853 98.283C232.112 99.5309 231.325 100.746 230.527 101.95C229.737 103.162 228.909 104.347 228.081 105.532C227.247 106.714 226.4 107.886 225.536 109.046C224.656 110.195 223.795 111.355 222.876 112.477V112.395C223.051 112.683 223.221 112.979 223.387 113.272L223.39 113.275Z" fill="#C2612D"/>
<path d="M234.947 121.91C235.31 122.077 235.677 122.241 236.035 122.417L235.942 122.447C236.677 120.741 237.472 119.065 238.251 117.378C239.05 115.703 239.861 114.035 240.69 112.373C241.523 110.716 242.357 109.057 243.234 107.422C244.101 105.782 244.981 104.147 245.91 102.537C245.189 104.251 244.418 105.941 243.633 107.622C242.86 109.309 242.043 110.977 241.225 112.642C240.403 114.304 239.563 115.96 238.711 117.606C237.836 119.244 236.98 120.889 236.065 122.507L236.029 122.571L235.972 122.538C235.627 122.335 235.288 122.121 234.947 121.912V121.91Z" fill="#C2612D"/>
<path d="M220.695 75.4107C220.916 74.6043 221.463 73.8802 221.958 73.1863C222.267 72.7557 222.567 72.2867 222.77 71.7957C223.098 67.7254 224.071 63.8361 224.634 62.7143C225.517 60.9644 230.273 59.3927 234.952 60.2732C239.634 61.1234 243.513 64.2969 243.72 66.2497C243.797 66.9903 244.147 69.9498 241.649 77.221C240.826 79.5606 239.752 81.7192 238.404 83.0549C237.073 84.3769 235.756 85.1202 234.594 85.5234C233.104 86.0473 231.809 86.1515 230.71 85.8389L229.819 85.6743C228.387 85.5454 226.99 84.7746 225.634 83.3621C224.915 82.6133 224.213 81.6232 223.622 80.3203C223.218 79.4179 222.958 78.3318 222.811 77.1497C222.171 77.1414 221.523 76.922 221.031 76.5188C220.709 76.2555 220.583 75.8167 220.695 75.4135V75.4107Z" fill="#D4774C"/>
<path d="M238.259 75.1529C238.372 74.8567 238.407 74.5522 238.415 74.2423C238.432 73.9406 238.415 73.6334 238.317 73.3865C238.128 72.8819 237.483 72.8325 237.038 73.1369C236.573 73.4359 236.138 73.9049 235.901 74.4178C235.663 74.9499 235.608 75.5808 235.534 76.2089C235.433 75.5917 235.354 74.939 235.567 74.2917C235.791 73.6416 236.231 73.1287 236.803 72.7447C237.098 72.5664 237.483 72.454 237.852 72.5335C238.227 72.5966 238.571 72.912 238.653 73.2713C238.754 73.6224 238.705 73.9625 238.637 74.2752C238.555 74.5824 238.464 74.906 238.262 75.1529H238.259Z" fill="#BF6237"/>
<path d="M236.699 76.3872C236.838 76.1239 236.898 75.8633 236.937 75.6055C236.969 75.3477 236.98 75.0789 236.958 74.8238C236.945 74.5714 236.885 74.3356 236.762 74.1463C236.628 73.968 236.42 73.787 236.122 73.7925C236.371 73.6032 236.775 73.6718 237.021 73.9022C237.286 74.1353 237.388 74.4809 237.415 74.7881C237.431 75.1008 237.396 75.408 237.281 75.6987C237.174 75.9867 236.967 76.25 236.699 76.3872V76.3872Z" fill="#BF6237"/>
<path d="M226.596 78.6692C226.468 78.9023 226.247 79.0532 226.022 79.1739C225.785 79.2699 225.53 79.3439 225.268 79.2918C225.495 79.1547 225.714 79.0779 225.924 78.9654C226.145 78.8749 226.348 78.757 226.594 78.6692H226.596Z" fill="#BF6237"/>
<path d="M227.192 76.7026C226.954 77.4514 226.389 78.085 225.692 78.4772C225.342 78.6719 224.956 78.8118 224.56 78.8557C224.166 78.9215 223.765 78.8667 223.39 78.7679C224.155 78.6253 224.847 78.4443 225.467 78.0767C226.099 77.7311 226.648 77.2539 227.192 76.7026V76.7026Z" fill="#BF6237"/>
<path d="M224.738 76.6038C224.699 76.8178 224.626 76.9056 224.535 76.9741C224.437 77.0317 224.328 77.0592 224.115 77.0043C224.09 76.7849 224.177 76.6642 224.287 76.5874C224.404 76.5216 224.549 76.4886 224.738 76.6038V76.6038Z" fill="#BF6237"/>
<path d="M226.241 72.0178C226.73 72.0178 227.127 72.5499 227.127 73.2082C227.127 73.8665 226.73 74.3986 226.241 74.3986C225.752 74.3986 225.355 73.8665 225.355 73.2082C225.355 72.5499 225.752 72.0178 226.241 72.0178Z" fill="#5E2B13"/>
<path d="M225.003 71.8697C225.033 71.8944 225.129 71.9685 225.222 71.9932C225.317 72.0261 225.427 72.0425 225.533 72.0508C225.755 72.0672 225.984 72.048 226.214 72.0151C226.411 71.9877 226.594 72.1248 226.621 72.325C226.648 72.5225 226.512 72.7063 226.312 72.7337C226.274 72.7392 226.233 72.7365 226.197 72.731C225.935 72.6843 225.67 72.6267 225.413 72.5225C225.285 72.4677 225.156 72.4046 225.039 72.3168C224.921 72.2208 224.806 72.133 224.752 71.9218C224.735 71.8615 224.771 71.7984 224.834 71.782C224.872 71.771 224.91 71.782 224.937 71.8066L225.003 71.867V71.8697Z" fill="#5E2B13"/>
<path d="M224.943 69.7496C224.74 69.766 224.546 69.6398 224.486 69.4341C224.418 69.201 224.552 68.9569 224.784 68.8883C225.216 68.7622 225.596 68.7402 226.003 68.743C226.402 68.7567 226.804 68.8088 227.187 68.9267C227.569 69.0419 227.946 69.1708 228.288 69.3765C228.638 69.5603 228.952 69.8044 229.237 70.0677C229.308 70.1335 229.332 70.2405 229.291 70.3338C229.239 70.449 229.103 70.5011 228.988 70.449L228.974 70.4435C228.646 70.2954 228.329 70.1445 227.996 70.043C227.665 69.9361 227.334 69.8455 226.995 69.7989C226.659 69.7496 226.32 69.7166 225.981 69.7139C225.651 69.7002 225.287 69.7249 224.995 69.7496L224.945 69.755L224.943 69.7496Z" fill="#5E2B13"/>
<path d="M224.27 68.9212C224.308 68.9157 224.347 68.9432 224.352 68.9816L224.355 68.998C224.363 69.0474 224.388 69.1077 224.421 69.1489C224.453 69.19 224.497 69.2202 224.544 69.2421C224.639 69.2833 224.757 69.2915 224.88 69.2833C224.907 69.2805 224.937 69.2833 224.965 69.2942C225.088 69.3326 225.159 69.4643 225.12 69.5877C225.082 69.7112 224.951 69.7825 224.828 69.7441L224.817 69.7413C224.658 69.692 224.492 69.6179 224.36 69.4835C224.226 69.3491 224.166 69.1544 224.213 68.9788C224.221 68.9514 224.243 68.9295 224.27 68.9267V68.9212Z" fill="#5E2B13"/>
<path d="M231.571 76.0662C233.812 76.0662 235.63 77.8902 235.63 80.1393C235.63 82.3884 233.812 84.2124 231.571 84.2124C229.329 84.2124 227.512 82.3884 227.512 80.1393C227.512 77.8902 229.329 76.0662 231.571 76.0662Z" fill="#D46C46"/>
<path d="M230.712 85.8361C230.909 85.8937 231.18 85.9321 231.521 85.9568V90.9953C231.281 91.0145 230.147 91.1709 228.63 92.2186C226.651 88.7654 225.123 85.0599 224.079 81.22C224.562 82.0922 225.093 82.7943 225.637 83.3594C226.992 84.7719 228.386 85.5426 229.819 85.6743L230.712 85.8389V85.8361Z" fill="#1A223B"/>
<path d="M257.054 100.875C256.758 102.323 255.99 103.607 254.96 104.66C252.322 100.079 249.466 95.6115 247.632 94.059L247.506 93.9493C247.066 93.5845 246.607 93.2883 246.131 93.0524C244.991 91.7084 243.384 90.5921 241.14 90.1944C241.012 90.1697 240.84 90.1533 240.621 90.145V82.232C239.951 81.859 239.347 81.3626 238.855 80.7701C238.046 79.791 237.513 78.5265 237.412 77.2593C238.166 76.6806 238.91 76.0306 239.314 75.1693C239.719 74.3081 239.705 73.1835 239.055 72.4896C238.388 71.7792 237.245 71.7161 236.34 72.0754C235.436 72.4347 234.837 73.3563 234.143 74.0393C232.891 73.2137 231.945 71.9328 231.524 70.4928C231.103 69.0501 231.207 67.4593 231.817 66.0879C229.34 67.4785 226.151 67.9146 223.425 67.1C223.149 68.5208 222.909 70.1445 222.772 71.7984C222.712 71.9493 222.638 72.1084 222.556 72.2537C222.483 71.3267 222.447 70.3941 222.436 69.467C222.406 66.9217 222.636 64.2146 224.144 62.1684C225.552 60.2677 227.87 59.2364 230.18 58.7701C232.618 58.2736 235.19 58.3285 237.543 59.1212C241.2 60.3582 244.188 63.4411 245.311 67.1466C246.845 72.1989 245.041 77.9039 246.959 82.8218C248.258 86.1351 251.057 88.5762 253.394 91.2531C255.736 93.9356 257.781 97.3888 257.056 100.878L257.054 100.875Z" fill="#1A223B"/>
<path style="mix-blend-mode:multiply" opacity="0.5" d="M180.942 282.125C180.942 284.083 162.207 285.672 139.1 285.672C115.992 285.672 97.2578 284.083 97.2578 282.125C97.2578 280.167 115.992 278.579 139.1 278.579C162.207 278.579 180.942 280.167 180.942 282.125Z" fill="url(#paint2_radial_319_707)"/>
<path d="M166.258 273.746H152.271L125.586 195.326L126.819 145.882L143.719 140.544L149.35 173.839L166.258 273.746V273.746Z" fill="#1C2540"/>
<g style="mix-blend-mode:multiply" opacity="0.5">
<path d="M155.918 273.746H152.271L125.586 195.326L126.819 145.882L143.719 140.544L149.35 173.839C140.671 195.397 139.583 219.282 146.261 241.545L155.918 273.746V273.746Z" fill="#1C2540"/>
</g>
<path d="M153.125 273.748H164.26C167.576 278.867 175.008 279.069 175.74 279.728C176.229 280.167 176.229 280.808 175.74 281.659H153.278C152.045 279.028 152.045 276.735 153.278 274.78L153.125 273.748V273.748Z" fill="#E6E6E6"/>
<path d="M176.065 282.125H152.906V281.223H176.065V282.125Z" fill="#A9C0C4"/>
<path d="M143.722 140.544L139.791 159.335L121.992 273.751H108.814L113.051 214.66L112.485 158.427C111.337 153.646 111.553 148.15 113.128 141.937L143.719 140.547L143.722 140.544Z" fill="#28365D"/>
<path d="M109.894 273.748H121.03C124.345 278.867 131.777 279.069 132.51 279.728C132.999 280.167 132.999 280.808 132.51 281.659H110.047C108.814 279.028 108.814 276.735 110.047 274.78L109.894 273.748V273.748Z" fill="#E6E6E6"/>
<path d="M132.835 282.125H109.675V281.223H132.835V282.125Z" fill="#A9C0C4"/>
<path d="M124.548 91.4287C125.463 91.319 126.338 91.2367 127.155 91.1873V77.5226H135.847V92.2433C137.586 93.1923 138.665 94.8325 139.966 96.939C140.453 97.7234 140.915 98.4283 141.352 99.0893C141.27 99.306 141.185 99.5227 141.103 99.7394C140.155 100.655 138.939 101.149 137.288 100.905C134.117 100.436 130.927 97.6494 128.574 95.6581C127.013 94.3361 125.726 92.9317 124.545 91.4259L124.548 91.4287Z" fill="#EBAF7F"/>
<path d="M135.842 86.8838V89.3304C135.533 89.2646 135.208 89.1741 134.869 89.0507C133.71 88.6447 132.395 87.9069 131.061 86.5794C130.493 86.0171 129.968 85.3012 129.492 84.4839C130.646 85.496 131.761 86.1021 132.769 86.4477C134.054 86.903 135.147 86.9387 135.842 86.8838V86.8838Z" fill="#E48855"/>
<path d="M144.867 132.508C144.602 136.263 144.356 139.551 144.132 142.373C142.063 142.801 139.469 143.172 136.344 143.482C136.139 143.501 135.934 143.523 135.724 143.542C129.416 144.129 120.524 144.354 112.491 142.373L116.651 124.899L118.02 112.386L120.248 92.0101C122.645 91.179 124.949 90.8828 127.161 91.1269C131.649 94.7968 134.535 96.4781 135.822 96.1654C135.828 96.1654 135.842 96.16 135.847 96.16C136.096 96.0941 136.276 95.9789 136.402 95.8281C136.987 95.1671 136.558 93.8286 136.202 92.9865C136.077 92.6958 135.959 92.4489 135.847 92.2487C135.926 92.2652 136.03 92.2926 136.156 92.3337C136.596 92.4544 137.41 92.7397 137.875 93.1813C138.539 93.8176 144.703 102.685 145.832 104.846C146.575 106.264 145.621 121.874 144.872 132.51L144.867 132.508Z" fill="#FF4846"/>
<path d="M126.884 91.3656C126.575 88.5898 126.589 87.191 126.923 87.1636C127.423 87.1252 134.319 90.0188 134.822 91.0584C135.155 91.7523 135.568 93.4227 136.063 96.0695C134.655 97.098 131.597 95.5292 126.887 91.3628L126.884 91.3656Z" fill="#FF814F"/>
<path d="M136.06 96.0722L135.792 90.8637L135.842 89.3332C137.189 89.7858 138.031 90.2328 138.365 90.6717C138.698 91.1105 138.81 92.2981 138.698 94.2373C138.504 95.3838 137.624 95.9954 136.058 96.075L136.06 96.0722Z" fill="#FF814F"/>
<path d="M136.345 143.482C136.14 143.501 135.935 143.523 135.724 143.542C137.878 131.871 136.468 106.001 135.82 96.1627C135.825 96.1627 135.839 96.1573 135.844 96.1573C136.093 96.0914 136.274 95.9762 136.399 95.8254C137.033 105.395 138.488 131.526 136.345 143.482V143.482Z" fill="#FF814F"/>
<g style="mix-blend-mode:multiply" opacity="0.5">
<path d="M144.867 132.508C144.602 136.263 144.356 139.551 144.132 142.374C142.063 142.801 139.469 143.172 136.345 143.482C136.14 143.501 135.934 143.523 135.724 143.542C129.416 144.129 120.524 144.354 112.491 142.374L116.651 124.899L118.02 112.386C119.759 111.764 121.563 111.369 123.369 111.248C123.659 117.749 126.95 124.046 132.111 127.99C135.757 130.777 140.289 132.346 144.87 132.508H144.867Z" fill="#871A1A"/>
</g>
<path d="M179.706 123.333V126.331H135.068L142.309 123.882L143.927 123.333H179.706V123.333Z" fill="#C7762F"/>
<path d="M173.833 163.422H135.071V126.334H173.833V163.422Z" fill="#F5AD49"/>
<path d="M153.109 159.851H136.818V157.574H153.109V159.851Z" fill="#C7762F"/>
<path d="M147.749 156.592H136.821V154.938H147.749V156.592Z" fill="#C7762F"/>
<path d="M170.842 131.688C170.842 133.331 169.517 134.661 167.879 134.661C166.242 134.661 164.917 133.331 164.917 131.688C164.917 130.045 166.245 128.714 167.879 128.714C169.517 128.714 170.842 130.045 170.842 131.688Z" fill="#C7762F"/>
<g style="mix-blend-mode:screen" opacity="0.5">
<path d="M135.068 126.334H136.818V163.422H135.068V126.334Z" fill="#F5AD49"/>
</g>
<path d="M179.706 123.333V160.007L173.833 163.422V126.334L175.401 125.535L179.706 123.336V123.333Z" fill="#E38C3B"/>
<g style="mix-blend-mode:multiply" opacity="0.5">
<path d="M179.706 153.131V160.007L173.833 163.422V126.334L175.401 125.535C175.251 131.177 175.494 136.822 176.134 142.426C176.437 145.067 176.842 147.741 177.908 150.174C178.37 151.233 178.971 152.239 179.704 153.134L179.706 153.131Z" fill="#E38C3B"/>
</g>
<g style="mix-blend-mode:multiply" opacity="0.5">
<path d="M179.707 123.333V123.747C162.921 125.911 148.743 124.699 142.309 123.882L143.927 123.333H179.707Z" fill="#C7762F"/>
</g>
<path d="M144.87 163.353H146.625C145.753 164.023 144.517 164.179 142.916 163.817C142.5 164.25 141.97 164.426 141.325 164.346C140.513 164.524 139.808 164.59 139.204 164.538C138.48 164.648 137.802 164.634 137.17 164.492C135.883 162.956 134.97 161.801 134.434 161.03C132.078 159.025 129.771 157.023 127.502 155.004C128.082 154.508 128.65 153.998 129.205 153.485C130.744 152.53 132.209 151.524 133.538 150.404C133.658 150.325 133.775 150.243 133.896 150.163C135.675 152.313 137.455 154.442 139.207 156.537L141.833 158.276C143.851 158.926 144.796 159.398 144.676 159.692C144.556 159.985 143.482 160.054 141.453 159.9L144.873 163.351L144.87 163.353Z" fill="#EBAF7F"/>
<path d="M139.097 154.384L137.793 155.476L133.182 159.316L132.089 160.224C115.235 145.147 106.45 136.317 105.734 133.737C105.28 132.132 105.57 128.994 106.054 125.881C106.789 121.188 107.973 116.578 109.49 112.077C111.469 106.201 114.784 96.9994 117.064 94.1167C117.168 93.9823 117.269 93.8616 117.364 93.7601C117.49 93.6339 117.619 93.5105 117.744 93.3953C122.514 89.0946 130.033 93.2143 129.454 99.616C129.375 100.521 129.23 101.251 129.025 101.802L128.426 103.681L128.407 103.722L127.049 107.973L120.445 130.645L139.092 154.384H139.097Z" fill="#FF4846"/>
<g style="mix-blend-mode:multiply" opacity="0.5">
<path d="M139.097 154.384L137.793 155.476L116.443 129.897L118.091 128.764L115.623 124.833L119.734 126.336L128.415 103.725L127.057 107.976L120.453 130.648L139.1 154.387L139.097 154.384Z" fill="#871A1A"/>
</g>
<g style="mix-blend-mode:screen" opacity="0.5">
<path d="M133.182 159.316L132.089 160.224C115.235 145.147 106.45 136.317 105.734 133.736C105.28 132.132 105.57 128.994 106.054 125.881C106.789 121.188 107.973 116.577 109.49 112.077C111.469 106.201 114.784 96.9993 117.064 94.1166C114.885 100.889 105.685 129.817 106.658 133.045C107.661 136.364 129.268 155.813 133.179 159.316H133.182Z" fill="#FF7A46"/>
</g>
<path d="M130.905 143.956C129.809 142.769 128.762 141.537 127.726 140.303C126.682 139.071 125.676 137.81 124.673 136.548C123.678 135.278 122.686 134.008 121.729 132.708L120.297 130.758C119.835 130.094 119.36 129.441 118.914 128.766C119.466 129.356 119.991 129.971 120.529 130.574L122.096 132.42C123.137 133.651 124.143 134.913 125.149 136.175C126.144 137.445 127.136 138.717 128.093 140.017C129.055 141.315 130.009 142.615 130.911 143.959L130.905 143.956Z" fill="#911B1A"/>
<path d="M128.429 103.684C127.896 105.963 127.3 108.226 126.696 110.483C126.092 112.743 125.436 114.984 124.807 117.236C124.132 119.474 123.481 121.72 122.784 123.95L121.727 127.294C121.352 128.402 121 129.515 120.606 130.618C120.866 129.477 121.164 128.347 121.442 127.209L122.339 123.818C122.946 121.561 123.599 119.315 124.228 117.066C124.903 114.828 125.551 112.581 126.25 110.351C126.95 108.121 127.658 105.891 128.429 103.681V103.684Z" fill="#911B1A"/>
<path d="M146.329 77.4431C145.837 77.8463 145.19 78.0657 144.55 78.074C144.402 79.2589 144.143 80.3423 143.738 81.2446C143.148 82.5475 142.443 83.5404 141.726 84.2864C140.371 85.699 138.974 86.4697 137.542 86.5986L136.651 86.7632C135.552 87.0759 134.259 86.9689 132.767 86.4478C131.605 86.0446 130.287 85.3013 128.956 83.9792C127.611 82.6407 126.537 80.4822 125.712 78.1453C123.214 70.8741 123.563 67.9146 123.64 67.1741C123.845 65.2239 127.724 62.0477 132.408 61.1975C137.088 60.317 141.844 61.8914 142.727 63.6386C143.29 64.7604 144.263 68.6469 144.591 72.72C144.793 73.211 145.097 73.68 145.403 74.1106C145.9 74.8045 146.444 75.5286 146.666 76.335C146.775 76.7382 146.652 77.1771 146.329 77.4404V77.4431Z" fill="#EBAF7F"/>
<path d="M129.104 76.08C128.899 75.8331 128.809 75.5067 128.73 75.2023C128.664 74.8896 128.623 74.5522 128.716 74.2012C128.795 73.8419 129.142 73.5264 129.514 73.4633C129.886 73.3838 130.268 73.4963 130.564 73.6745C131.135 74.0585 131.578 74.5687 131.796 75.2215C132.001 75.8715 131.939 76.5216 131.832 77.1387C131.753 76.5133 131.714 75.8797 131.468 75.3476C131.225 74.8347 130.793 74.3657 130.329 74.0668C129.88 73.7651 129.238 73.8117 129.047 74.3164C128.94 74.5605 128.932 74.8704 128.951 75.1721C128.959 75.482 128.995 75.7865 129.107 76.0827L129.104 76.08Z" fill="#E48855"/>
<path d="M130.665 77.3142C130.392 77.1798 130.197 76.911 130.085 76.6258C129.965 76.3378 129.932 76.0279 129.949 75.7179C129.976 75.408 130.074 75.0624 130.345 74.832C130.594 74.6098 130.99 74.5275 131.244 74.7195C130.949 74.7223 130.733 74.8868 130.602 75.0733C130.482 75.2653 130.419 75.4985 130.405 75.7508C130.375 76.272 130.4 76.7876 130.665 77.3142V77.3142Z" fill="#E48855"/>
<path d="M140.767 79.599C141.016 79.6868 141.216 79.8047 141.437 79.8952C141.648 80.0076 141.869 80.0844 142.093 80.2216C141.831 80.2737 141.576 80.1996 141.339 80.1036C141.112 79.983 140.893 79.8349 140.765 79.6017L140.767 79.599Z" fill="#E48855"/>
<path d="M140.171 77.6296C140.713 78.1837 141.265 78.6609 141.896 79.0038C142.205 79.1848 142.536 79.3219 142.88 79.4344C143.225 79.5578 143.591 79.6072 143.973 79.6922C143.599 79.7964 143.2 79.8376 142.806 79.7772C142.407 79.7388 142.025 79.5962 141.672 79.4015C141.325 79.2013 141.005 78.9517 140.754 78.6445C140.499 78.3428 140.283 78.0054 140.171 77.6269V77.6296Z" fill="#E48855"/>
<path d="M142.626 77.5309C142.721 77.4705 142.801 77.4596 142.875 77.4596C142.954 77.4541 143.014 77.4843 143.074 77.5172C143.129 77.5583 143.181 77.6022 143.208 77.6763C143.238 77.7448 143.263 77.8216 143.246 77.9341C143.137 77.9642 143.066 77.9615 142.998 77.956C142.926 77.956 142.877 77.9286 142.828 77.9012C142.784 77.8655 142.738 77.8326 142.708 77.7668C142.675 77.7064 142.642 77.6406 142.623 77.5309H142.626Z" fill="#E48855"/>
<path d="M142.011 74.1353C142.011 74.7936 141.615 75.3257 141.125 75.3257C140.636 75.3257 140.24 74.7936 140.24 74.1353C140.24 73.477 140.636 72.9449 141.125 72.9449C141.615 72.9449 142.011 73.477 142.011 74.1353Z" fill="#5E2B13"/>
<path d="M142.372 70.6739C142.077 70.6492 141.716 70.6245 141.385 70.6382C141.046 70.641 140.707 70.6739 140.371 70.7232C140.032 70.7726 139.701 70.8631 139.371 70.9674C139.037 71.0716 138.72 71.2197 138.392 71.3678L138.378 71.3733C138.264 71.4254 138.127 71.3733 138.075 71.2581C138.034 71.1648 138.059 71.0579 138.13 70.992C138.414 70.7287 138.728 70.4846 139.078 70.3009C139.42 70.0951 139.8 69.9662 140.18 69.851C140.562 69.7358 140.964 69.681 141.363 69.6673C141.771 69.6645 142.15 69.6865 142.582 69.8126C142.815 69.8812 142.949 70.1253 142.88 70.3585C142.82 70.5642 142.626 70.6903 142.424 70.6739L142.375 70.6684L142.372 70.6739Z" fill="#5E2B13"/>
<path d="M143.154 69.9031C143.2 70.0787 143.14 70.2734 143.006 70.4078C142.875 70.5422 142.708 70.6163 142.55 70.6657L142.539 70.6684C142.416 70.7068 142.284 70.6355 142.246 70.512C142.208 70.3886 142.279 70.257 142.402 70.2186C142.429 70.2103 142.459 70.2076 142.487 70.2076C142.61 70.2158 142.725 70.2076 142.823 70.1665C142.869 70.1445 142.913 70.1171 142.946 70.0732C142.979 70.0321 143.003 69.9717 143.012 69.9223L143.014 69.9059C143.02 69.8675 143.058 69.8401 143.096 69.8455C143.126 69.851 143.148 69.873 143.154 69.8977V69.9031Z" fill="#5E2B13"/>
<path d="M139.854 81.0664C139.854 83.3155 138.037 85.1395 135.795 85.1395C133.554 85.1395 131.736 83.3155 131.736 81.0664C131.736 78.8173 133.554 76.9933 135.795 76.9933C138.037 76.9933 139.854 78.8173 139.854 81.0664Z" fill="#E9A770"/>
<path d="M135.033 68.0463C135.328 70.8056 134.481 73.6663 132.737 75.8194C132.573 74.533 131.591 73.3893 130.359 72.9916C129.755 72.7968 129.041 72.7913 128.536 73.1781C127.923 73.6498 127.808 74.544 127.953 75.3037C128.208 76.6175 129.118 77.786 130.326 78.3483C130.135 79.1793 129.673 80.0653 129.301 80.8305C128.926 81.5985 128.355 82.2951 127.584 82.6572C125.332 79.9501 124.031 76.5627 124.17 73.0409C124.244 71.1895 123.73 69.1736 124.466 67.473C125.201 65.7725 126.513 64.3572 128.054 63.3342C129.596 62.3111 131.359 61.661 133.158 61.2414C133.715 61.1125 134.286 61.0028 134.858 61.0357C135.429 61.0686 136.008 61.2606 136.418 61.661C136.943 62.1712 137.121 62.9474 137.135 63.6825C137.167 65.4516 136.416 66.9492 135.03 68.049L135.033 68.0463Z" fill="#5E2B13"/>
<path d="M129.339 60.4624C128.85 60.1525 128.817 59.8261 129.235 59.4832C129.864 58.9676 131.047 59.0828 130.867 59.8946L129.339 60.4624V60.4624Z" fill="#FF814F"/>
<path d="M124.149 74.6866C121.683 69.5658 122.47 65.3583 126.513 62.0587C132.575 57.1107 142.232 58.707 143.973 65.4104L137.148 69.1736L124.151 74.6893L124.149 74.6866Z" fill="#FF4846"/>
<path d="M145.417 65.7313L136.979 69.212C137.364 65.553 135.145 62.4564 130.323 59.9221C137.906 57.2615 142.938 59.198 145.417 65.7313Z" fill="#C42C2B"/>
<path d="M123.132 70.992C123.479 70.6656 123.895 70.619 124.376 70.8549C124.777 71.0524 125.048 71.4446 125.16 71.878L125.381 72.7282L123.687 73.4743C123.307 72.5088 123.121 71.6805 123.129 70.9893L123.132 70.992Z" fill="#5E2B13"/>
<path d="M132.408 71.184C140.6 67.8296 144.703 65.553 144.711 64.3517C148.59 62.7718 151.197 62.8322 152.531 64.5355C153.868 66.236 146.592 68.6935 130.706 71.9081L132.408 71.1867V71.184Z" fill="#FF814F"/>
<defs>
<linearGradient id="paint0_linear_319_707" x1="101.024" y1="276.42" x2="101.244" y2="304.369" gradientUnits="userSpaceOnUse">
<stop offset="0.2" stop-color="#8E9A9A"/>
<stop offset="1" stop-color="white" stop-opacity="0"/>
</linearGradient>
<radialGradient id="paint1_radial_319_707" cx="0" cy="0" r="1" gradientUnits="userSpaceOnUse" gradientTransform="translate(255.184 283.003) scale(44.3074 44.4609)">
<stop offset="0.4" stop-color="#8E9A9A"/>
<stop offset="1" stop-color="white" stop-opacity="0"/>
</radialGradient>
<radialGradient id="paint2_radial_319_707" cx="0" cy="0" r="1" gradientUnits="userSpaceOnUse" gradientTransform="translate(139.1 282.125) scale(42.64 42.7881)">
<stop offset="0.4" stop-color="#8E9A9A"/>
<stop offset="1" stop-color="white" stop-opacity="0"/>
</radialGradient>
</defs>
</svg>
