<svg width="16" height="17" viewBox="0 0 16 17" fill="none" xmlns="http://www.w3.org/2000/svg">
<g clip-path="url(#clip0)">
<path d="M8.00009 3.08887C7.04243 3.08887 6.26328 3.86799 6.26328 4.82565V5.6884H4.68409L4.29712 12.8H11.703L11.316 5.6884H9.73684V4.82565C9.7369 3.86799 8.95778 3.08887 8.00009 3.08887ZM10.7132 11.8626H5.28706L5.57199 6.62593H10.4282L10.7132 11.8626ZM8.00009 4.02637C8.44084 4.02637 8.79937 4.38493 8.79937 4.82565V5.6884H7.20078V4.82565C7.20081 4.38493 7.55937 4.02637 8.00009 4.02637Z" fill="#777777"/>
<path d="M14.7591 4.27865L15.8331 4.46696L15.995 3.54355L13.2974 3.07062L12.8245 5.76824L13.7479 5.93015L13.9533 4.75824C14.6726 5.88671 15.0625 7.20968 15.0625 8.55762C15.0625 10.4441 14.3279 12.2176 12.9939 13.5516C11.66 14.8855 9.8865 15.6201 8 15.6201C6.1135 15.6201 4.34 14.8855 3.00606 13.5516C1.67212 12.2176 0.9375 10.4441 0.9375 8.55762C0.9375 6.67115 1.67212 4.89762 3.00606 3.56368C4.34 2.22977 6.11353 1.49512 8 1.49512C9.36203 1.49512 10.684 1.88346 11.8229 2.61818L12.3311 1.83037C11.0404 0.997742 9.54269 0.557617 8 0.557617C5.86312 0.557617 3.85416 1.38974 2.34316 2.90074C0.832156 4.41177 0 6.42074 0 8.55762C0 10.6945 0.832156 12.7035 2.34316 14.2145C3.85416 15.7255 5.86312 16.5576 8 16.5576C10.1369 16.5576 12.1458 15.7255 13.6569 14.2145C15.1679 12.7035 16 10.6945 16 8.55762C16 7.04074 15.5639 5.55165 14.7591 4.27865Z" fill="#777777"/>
<path d="M6.55212 8.77563H9.44792V9.71313H6.55212V8.77563Z" fill="#777777"/>
</g>
<defs>
<clipPath id="clip0">
<rect width="16" height="16" fill="white" transform="translate(0 0.557617)"/>
</clipPath>
</defs>
</svg>
