<svg aria-hidden="true" style="position: absolute; width: 0; height: 0; overflow: hidden;" version="1.1" xmlns="http://www.w3.org/2000/svg" xmlns:xlink="http://www.w3.org/1999/xlink">
<defs>
<symbol id="whatsapp" viewBox="0 0 21 24">
<path d="M13.192 13.045c0.228 0 2.411 1.138 2.504 1.299 0.027 0.067 0.027 0.147 0.027 0.201 0 0.335-0.107 0.71-0.228 1.018-0.308 0.75-1.554 1.232-2.317 1.232-0.643 0-1.969-0.563-2.545-0.83-1.915-0.871-3.107-2.357-4.259-4.058-0.509-0.75-0.964-1.674-0.951-2.598v-0.107c0.027-0.884 0.348-1.513 0.991-2.116 0.201-0.188 0.415-0.295 0.696-0.295 0.161 0 0.321 0.040 0.496 0.040 0.362 0 0.429 0.107 0.563 0.455 0.094 0.228 0.777 2.049 0.777 2.183 0 0.509-0.924 1.085-0.924 1.393 0 0.067 0.027 0.134 0.067 0.201 0.295 0.629 0.857 1.353 1.366 1.835 0.616 0.589 1.272 0.978 2.022 1.353 0.094 0.054 0.188 0.094 0.295 0.094 0.402 0 1.071-1.299 1.42-1.299zM10.473 20.143c4.634 0 8.411-3.777 8.411-8.411s-3.777-8.411-8.411-8.411-8.411 3.777-8.411 8.411c0 1.768 0.563 3.496 1.607 4.929l-1.058 3.121 3.241-1.031c1.366 0.897 2.987 1.393 4.621 1.393zM10.473 1.634c5.571 0 10.098 4.527 10.098 10.098s-4.527 10.098-10.098 10.098c-1.701 0-3.388-0.429-4.888-1.259l-5.585 1.795 1.821-5.424c-0.951-1.567-1.446-3.375-1.446-5.21 0-5.571 4.527-10.098 10.098-10.098z"></path>
</symbol>
<symbol id="instagram" viewBox="0 0 21 24">
<path d="M13.714 12c0-1.888-1.54-3.429-3.429-3.429s-3.429 1.54-3.429 3.429 1.54 3.429 3.429 3.429 3.429-1.54 3.429-3.429zM15.563 12c0 2.92-2.357 5.277-5.277 5.277s-5.277-2.357-5.277-5.277 2.357-5.277 5.277-5.277 5.277 2.357 5.277 5.277zM17.009 6.509c0 0.683-0.549 1.232-1.232 1.232s-1.232-0.549-1.232-1.232 0.549-1.232 1.232-1.232 1.232 0.549 1.232 1.232zM10.286 3.563c-1.5 0-4.714-0.121-6.067 0.415-0.469 0.188-0.817 0.415-1.179 0.777s-0.589 0.71-0.777 1.179c-0.536 1.353-0.415 4.567-0.415 6.067s-0.121 4.714 0.415 6.067c0.188 0.469 0.415 0.817 0.777 1.179s0.71 0.589 1.179 0.777c1.353 0.536 4.567 0.415 6.067 0.415s4.714 0.121 6.067-0.415c0.469-0.188 0.817-0.415 1.179-0.777s0.589-0.71 0.777-1.179c0.536-1.353 0.415-4.567 0.415-6.067s0.121-4.714-0.415-6.067c-0.188-0.469-0.415-0.817-0.777-1.179s-0.71-0.589-1.179-0.777c-1.353-0.536-4.567-0.415-6.067-0.415zM20.571 12c0 1.42 0.013 2.826-0.067 4.246-0.080 1.647-0.455 3.107-1.661 4.313s-2.665 1.58-4.313 1.661c-1.42 0.080-2.826 0.067-4.246 0.067s-2.826 0.013-4.246-0.067c-1.647-0.080-3.107-0.455-4.313-1.661s-1.58-2.665-1.661-4.313c-0.080-1.42-0.067-2.826-0.067-4.246s-0.013-2.826 0.067-4.246c0.080-1.647 0.455-3.107 1.661-4.313s2.665-1.58 4.313-1.661c1.42-0.080 2.826-0.067 4.246-0.067s2.826-0.013 4.246 0.067c1.647 0.080 3.107 0.455 4.313 1.661s1.58 2.665 1.661 4.313c0.080 1.42 0.067 2.826 0.067 4.246z"></path>
</symbol>
<symbol id="google-plus" viewBox="0 0 31 24">
<path d="M19.246 12.228c0 5.612-3.763 9.589-9.429 9.589-5.424 0-9.817-4.393-9.817-9.817s4.393-9.817 9.817-9.817c2.652 0 4.862 0.964 6.576 2.571l-2.665 2.558c-0.723-0.696-1.996-1.513-3.911-1.513-3.348 0-6.080 2.772-6.080 6.201s2.732 6.201 6.080 6.201c3.884 0 5.344-2.799 5.571-4.232h-5.571v-3.375h9.268c0.094 0.496 0.161 0.991 0.161 1.634zM30.857 10.594v2.813h-2.799v2.799h-2.813v-2.799h-2.799v-2.813h2.799v-2.799h2.813v2.799h2.799z"></path>
</symbol>
<symbol id="linkedin" viewBox="0 0 24 24">
<path d="M8 19h-3v-10h3v10zM19 19h-3v-5.342c0-1.392-0.496-2.085-1.479-2.085-0.779 0-1.273 0.388-1.521 1.165 0 1.262 0 6.262 0 6.262h-3c0 0 0.040-9 0-10h2.368l0.183 2h0.062c0.615-1 1.598-1.678 2.946-1.678 1.025 0 1.854 0.285 2.487 1.001 0.637 0.717 0.954 1.679 0.954 3.030v5.647z"></path>
<path d="M8.050 6.5c0 0.828-0.694 1.5-1.55 1.5s-1.55-0.672-1.55-1.5c0-0.828 0.694-1.5 1.55-1.5s1.55 0.672 1.55 1.5z"></path>
</symbol>
<symbol id="pinterest" viewBox="0 0 24 24">
<path d="M12.486 4.771c-4.23 0-6.363 3.033-6.363 5.562 0 1.533 0.581 2.894 1.823 3.401 0.205 0.084 0.387 0.004 0.446-0.221 0.041-0.157 0.138-0.553 0.182-0.717 0.061-0.221 0.037-0.3-0.127-0.495-0.359-0.422-0.588-0.972-0.588-1.747 0-2.25 1.683-4.264 4.384-4.264 2.392 0 3.706 1.463 3.706 3.412 0 2.568-1.137 4.734-2.824 4.734-0.932 0-1.629-0.77-1.405-1.715 0.268-1.13 0.786-2.347 0.786-3.16 0-0.729-0.392-1.336-1.2-1.336-0.952 0-1.718 0.984-1.718 2.304 0 0.841 0.286 1.409 0.286 1.409s-0.976 4.129-1.146 4.852c-0.34 1.44-0.051 3.206-0.025 3.385 0.013 0.104 0.149 0.131 0.21 0.051 0.088-0.115 1.223-1.517 1.607-2.915 0.111-0.396 0.627-2.445 0.627-2.445 0.311 0.589 1.213 1.108 2.175 1.108 2.863 0 4.804-2.608 4.804-6.103-0.003-2.64-2.24-5.1-5.64-5.1z"></path>
</symbol>
<symbol id="tumbler" viewBox="0 0 24 24">
<path d="M15.527 17.921v-2.066c-0.669 0.448-1.32 0.67-1.952 0.67-0.298 0-0.631-0.094-1.004-0.277-0.223-0.151-0.354-0.317-0.393-0.503-0.11-0.224-0.178-0.708-0.178-1.454v-3.291h3v-2h-3v-3.356h-1.772c-0.149 0.782-0.298 1.338-0.448 1.673-0.184 0.41-0.482 0.782-0.891 1.116-0.411 0.337-0.837 0.577-1.285 0.725v1.842h1.396v4.521c0 0.52 0.073 0.964 0.223 1.337 0.111 0.298 0.334 0.595 0.671 0.893 0.259 0.262 0.631 0.484 1.115 0.67 0.595 0.15 1.114 0.223 1.562 0.223 0.52 0 1.004-0.056 1.45-0.167 0.521-0.112 1.023-0.298 1.506-0.556z"></path>
</symbol>
<symbol id="facebook" viewBox="0 0 24 24">
<path d="M13 10h3v3h-3v7h-3v-7h-3v-3h3v-1.255c0-1.189 0.374-2.691 1.118-3.512 0.744-0.823 1.673-1.233 2.786-1.233h2.096v3h-2.1c-0.498 0-0.9 0.402-0.9 0.899v2.101z"></path>
</symbol>
<symbol id="twitter" viewBox="0 0 24 24">
<path d="M18.89 7.012c0.808-0.496 1.343-1.173 1.605-2.034-0.786 0.417-1.569 0.703-2.351 0.861-0.703-0.756-1.593-1.14-2.66-1.14-1.043 0-1.924 0.366-2.643 1.078-0.715 0.717-1.076 1.588-1.076 2.605 0 0.309 0.039 0.585 0.117 0.819-3.076-0.105-5.622-1.381-7.628-3.837-0.34 0.601-0.51 1.213-0.51 1.846 0 1.301 0.549 2.332 1.645 3.089-0.625-0.053-1.176-0.211-1.645-0.47 0 0.929 0.273 1.705 0.82 2.388 0.549 0.676 1.254 1.107 2.115 1.291-0.312 0.080-0.641 0.118-0.979 0.118-0.312 0-0.533-0.026-0.664-0.083 0.23 0.757 0.664 1.371 1.291 1.841 0.625 0.472 1.344 0.721 2.152 0.743-1.332 1.045-2.855 1.562-4.578 1.562-0.422 0-0.721-0.006-0.902-0.038 1.697 1.102 3.586 1.649 5.676 1.649 2.139 0 4.029-0.542 5.674-1.626 1.645-1.078 2.859-2.408 3.639-3.974 0.784-1.564 1.172-3.192 1.172-4.892v-0.468c0.758-0.57 1.371-1.212 1.84-1.921-0.68 0.293-1.383 0.492-2.11 0.593z"></path>
</symbol>
</defs>
</svg>
